<svg width="140" height="140" viewBox="0 0 140 140" fill="none" xmlns="http://www.w3.org/2000/svg">
<path d="M134.167 64.225L105 64.1667C101.792 64.1667 99.1667 66.7917 99.1667 70V122.5C99.1667 125.708 101.792 128.333 105 128.333H134.167C137.375 128.333 140 125.708 140 122.5V70C140 66.7917 137.375 64.225 134.167 64.225ZM134.167 116.667H105V75.8333H134.167V116.667ZM116.667 11.6667H11.6667C5.19167 11.6667 0 16.8583 0 23.3333V93.3333C0 99.75 5.19167 105 11.6667 105H52.5V116.667H40.8333V128.333H87.5V116.667H75.8333V105H87.5V93.3333H11.6667V23.3333H116.667V52.5H128.333V23.3333C128.333 16.8583 123.083 11.6667 116.667 11.6667ZM69.825 52.5L64.1667 35L58.5083 52.5H40.8333L55.2417 62.7667L49.7583 79.7417L64.1667 69.2417L78.575 79.7417L73.0917 62.7667L87.5 52.5H69.825Z" fill="black"/>
</svg>
