<svg width="100" height="140" viewBox="0 0 100 140" fill="none" xmlns="http://www.w3.org/2000/svg">
<path d="M54.8374 38.2774C54.8374 37.5387 55.4362 36.9399 56.1749 36.9399H62.3917C63.1304 36.9399 63.7292 37.5387 63.7292 38.2774C63.7292 39.0161 63.1304 39.6149 62.3917 39.6149H56.1749C55.4362 39.6149 54.8374 39.0161 54.8374 38.2774Z" fill="url(#paint0_linear)"/>
<path fill-rule="evenodd" clip-rule="evenodd" d="M90.162 92.7648C96.3431 83.0916 100 71.1083 100 58.132C100 26.0266 77.6142 0 50 0C22.3858 0 0 26.0266 0 58.132C0 71.1083 3.65691 83.0915 9.83789 92.7646C10.988 94.89 12.2011 97.0156 13.4769 99.1362C24.054 116.718 37.0917 130.892 50 140C62.9083 130.892 75.946 116.718 86.5231 99.1362C87.7988 97.0156 89.0119 94.8901 90.162 92.7648ZM32.1509 34.6246C32.1509 33.2475 33.2164 32.1311 34.5308 32.1311H65.4693C66.7836 32.1311 67.8492 33.2475 67.8492 34.6246V59.541H32.1509V34.6246ZM32.1968 64.8306C32.6671 72.6502 36.7101 79.2964 42.3982 82.4803C42.688 83.6632 42.8412 84.8955 42.8412 86.1618C42.8412 90.2035 41.2803 93.9005 38.6973 96.7431C37.8763 97.6468 38.4411 99.4536 39.6319 99.4536H60.3682C61.559 99.4536 62.1239 97.6468 61.3028 96.7431C58.7198 93.9005 57.1589 90.2035 57.1589 86.1618C57.1589 84.8955 57.3121 83.6631 57.602 82.4803C63.29 79.2963 67.333 72.6502 67.8033 64.8306H32.1968Z" fill="url(#paint1_linear)"/>
<defs>
<linearGradient id="paint0_linear" x1="19.8795" y1="14.4578" x2="70.9639" y2="103.494" gradientUnits="userSpaceOnUse">
<stop stop-color="#5680E9"/>
<stop offset="1" stop-color="#5AB9EA"/>
</linearGradient>
<linearGradient id="paint1_linear" x1="19.8795" y1="14.4578" x2="70.9639" y2="103.494" gradientUnits="userSpaceOnUse">
<stop stop-color="#5680E9"/>
<stop offset="1" stop-color="#5AB9EA"/>
</linearGradient>
</defs>
</svg>
