<svg width="105" height="140" viewBox="0 0 105 140" fill="none" xmlns="http://www.w3.org/2000/svg">
<path fill-rule="evenodd" clip-rule="evenodd" d="M23.3081 6.5625C20.4616 6.5625 18.1541 8.77517 18.1541 11.5046V60.8913C18.1834 60.8909 18.2128 60.8906 18.2422 60.8906H95.3769C95.3958 60.8906 95.4148 60.8907 95.4337 60.8909C95.4441 60.891 95.4546 60.8912 95.465 60.8913V11.5046C95.465 8.77517 93.1574 6.5625 90.3109 6.5625H23.3081ZM13 65.8681C13 63.6784 14.4851 61.8213 16.5421 61.1724C14.522 61.8646 13.0587 63.7561 13.0017 65.9971C13.0006 65.9542 13 65.9112 13 65.8681ZM40.3463 106.358C28.0278 100.047 19.272 86.874 18.2535 71.375H95.3656C94.3471 86.8739 85.5914 100.047 73.2729 106.358C72.6452 108.702 72.3134 111.145 72.3134 113.655C72.3134 121.666 75.6938 128.993 81.2876 134.628C83.0658 136.419 81.8426 140 79.2636 140H34.3556C31.7766 140 30.5533 136.419 32.3315 134.628C37.9253 128.993 41.3058 121.666 41.3058 113.655C41.3058 111.145 40.974 108.702 40.3463 106.358ZM100.619 65.8681C100.619 65.9113 100.618 65.9543 100.617 65.9972C100.56 63.7562 99.0971 61.8647 97.077 61.1725C99.134 61.8214 100.619 63.6784 100.619 65.8681ZM69.9368 16.0938C68.4726 16.0938 67.2857 17.2807 67.2857 18.7448C67.2857 20.209 68.4726 21.3959 69.9368 21.3959H83.8916C85.3557 21.3959 86.5426 20.209 86.5426 18.7448C86.5426 17.2807 85.3557 16.0938 83.8916 16.0938H69.9368Z" fill="url(#paint0_linear)"/>
<rect x="0.952148" y="31.6329" width="7.44304" height="55.7308" rx="3.72152" transform="rotate(-90 0.952148 31.6329)" fill="white"/>
<rect x="25.1025" width="7.43077" height="55.8228" rx="3.71539" fill="white"/>
<defs>
<linearGradient id="paint0_linear" x1="56.8095" y1="6.5625" x2="56.8095" y2="140" gradientUnits="userSpaceOnUse">
<stop stop-color="#5680E9"/>
<stop offset="1" stop-color="#5AB9EA"/>
</linearGradient>
</defs>
</svg>
