<svg width="209" height="140" viewBox="0 0 209 140" fill="none" xmlns="http://www.w3.org/2000/svg">
<path d="M62.0352 25.7143C62.0352 39.9159 50.4982 51.4286 36.2667 51.4286C22.0352 51.4286 10.4983 39.9159 10.4983 25.7143C10.4983 11.5127 22.0352 0 36.2667 0C50.4982 0 62.0352 11.5127 62.0352 25.7143Z" fill="url(#paint0_linear)"/>
<path d="M209 75.5722C209 66.6945 204.433 58.8731 197.499 54.2857C190.768 59.616 181.809 62.7814 173.12 62.7814C170.021 62.7814 166.935 62.5947 163.958 62.1889C160.069 60.9263 155.695 61.3225 151.996 63.5703L101.314 94.3744C94.6903 98.4003 92.5209 106.939 96.4218 113.629L96.6814 114.075C100.657 120.894 109.442 123.243 116.302 119.321L157.333 95.8625V140H209" fill="url(#paint1_linear)"/>
<path d="M11.5114 54.2857C4.57085 58.8732 0 66.6946 0 75.572V140H51.7163V95.8622L88.3144 116.766C87.3665 113.764 86.8492 110.523 86.8492 107.143C86.8492 98.9521 89.8855 91.5797 94.7294 86.4444L57.0498 63.5649C53.3471 61.3167 48.9664 60.9229 45.0734 62.1903C42.0967 62.5951 39.0115 62.7811 35.9139 62.7811C27.2166 62.7811 18.2492 59.6159 11.5114 54.2857Z" fill="url(#paint2_linear)"/>
<path d="M198.513 25.7143C198.513 39.9159 186.976 51.4286 172.744 51.4286C158.513 51.4286 146.976 39.9159 146.976 25.7143C146.976 11.5127 158.513 0 172.744 0C186.976 0 198.513 11.5127 198.513 25.7143Z" fill="url(#paint3_linear)"/>
<defs>
<linearGradient id="paint0_linear" x1="104" y1="-15" x2="104" y2="140" gradientUnits="userSpaceOnUse">
<stop stop-color="#5680E9"/>
<stop offset="0.9999" stop-color="#5AB9EA"/>
<stop offset="1" stop-color="#5AB9EA"/>
</linearGradient>
<linearGradient id="paint1_linear" x1="104" y1="-15" x2="104" y2="140" gradientUnits="userSpaceOnUse">
<stop stop-color="#5680E9"/>
<stop offset="0.9999" stop-color="#5AB9EA"/>
<stop offset="1" stop-color="#5AB9EA"/>
</linearGradient>
<linearGradient id="paint2_linear" x1="104" y1="-15" x2="104" y2="140" gradientUnits="userSpaceOnUse">
<stop stop-color="#5680E9"/>
<stop offset="0.9999" stop-color="#5AB9EA"/>
<stop offset="1" stop-color="#5AB9EA"/>
</linearGradient>
<linearGradient id="paint3_linear" x1="104" y1="-15" x2="104" y2="140" gradientUnits="userSpaceOnUse">
<stop stop-color="#5680E9"/>
<stop offset="0.9999" stop-color="#5AB9EA"/>
<stop offset="1" stop-color="#5AB9EA"/>
</linearGradient>
</defs>
</svg>
