<svg width="140" height="140" viewBox="0 0 140 140" fill="none" xmlns="http://www.w3.org/2000/svg">
<path fill-rule="evenodd" clip-rule="evenodd" d="M65.7718 32.7969C65.7718 50.9101 51.0483 65.5938 32.8859 65.5938C14.7235 65.5938 0 50.9101 0 32.7969C0 14.6837 14.7235 0 32.8859 0C51.0483 0 65.7718 14.6837 65.7718 32.7969ZM29.9602 11.816C29.9602 10.7016 30.866 9.79824 31.9834 9.79824C33.1007 9.79824 34.0065 10.7016 34.0065 11.816V37.378L46.8056 44.7475C47.7733 45.3047 48.1048 46.5387 47.5462 47.5038C46.9875 48.4688 45.7501 48.7995 44.7824 48.2423L31.1226 40.3772C30.9151 40.2797 30.7268 40.1481 30.5652 39.9897C30.0946 39.5407 29.8739 38.8929 29.9602 38.2599V11.816Z" fill="url(#paint0_linear)"/>
<path d="M100.809 31.6264C100.688 31.1906 100.258 30.9085 99.8041 30.9882C90.4692 32.6298 84.178 41.1791 85.7524 50.0838C87.3268 58.9884 96.1705 64.8763 105.505 63.2347C112.746 61.9615 118.155 56.5325 119.483 50.0053C119.692 48.9823 118.921 48.0599 117.869 47.9297L117.306 47.8599C116.159 47.7178 115.139 48.5729 114.867 49.68C113.745 54.2534 109.871 58.0068 104.741 58.909C97.9102 60.1101 91.4391 55.8019 90.2871 49.2863C89.1352 42.7707 93.7385 36.5151 100.569 35.314C101.2 35.203 101.636 34.5945 101.468 33.9884L100.809 31.6264Z" fill="url(#paint1_linear)"/>
<path d="M101.972 20.0857L100.933 20.1432C98.9863 20.251 97.6134 22.0864 98.0732 23.9662L103.482 46.0785C103.811 47.4231 105 48.3856 106.393 48.435L125.448 49.1111C127.431 49.1815 128.977 47.4193 128.634 45.4803L128.417 44.2546L110.059 43.6033C108.666 43.5538 107.477 42.5913 107.148 41.2467L101.972 20.0857Z" fill="url(#paint2_linear)"/>
<path d="M125.321 47.8003C124.947 47.0359 125.145 46.1161 125.801 45.568L126.879 44.6663C127.84 43.8635 129.307 44.2081 129.801 45.3525L134.165 55.4736C134.499 56.2469 134.266 57.147 133.598 57.6665L132.924 58.1906C131.986 58.9201 130.611 58.6062 130.091 57.5438L125.321 47.8003Z" fill="url(#paint3_linear)"/>
<path d="M102.574 28.0199C102.362 26.8238 103.179 25.6804 104.397 25.4662L116.897 23.2681C118.115 23.0539 119.274 23.8499 119.485 25.046L119.528 25.2867C119.739 26.4828 118.923 27.6261 117.705 27.8404L105.205 30.0385C103.987 30.2527 102.828 29.4567 102.616 28.2605L102.574 28.0199Z" fill="url(#paint4_linear)"/>
<path d="M104.988 10.2265C105.693 14.2137 102.972 18.0248 98.9112 18.7389C94.8504 19.453 90.9869 16.7996 90.282 12.8125C89.577 8.82536 92.2975 5.01425 96.3584 4.30016C100.419 3.58606 104.283 6.23939 104.988 10.2265Z" fill="url(#paint5_linear)"/>
<path d="M46.9607 80.9261C46.9607 84.527 43.8482 87.4461 40.0088 87.4461C36.1694 87.4461 33.0569 84.527 33.0569 80.9261C33.0569 77.3253 36.1694 74.4062 40.0088 74.4062C43.8482 74.4062 46.9607 77.3253 46.9607 80.9261Z" fill="url(#paint6_linear)"/>
<path d="M23.5144 85.8683C26.6215 83.4231 31.2538 83.8032 33.8609 86.7172C36.4681 89.6312 36.0628 93.9757 32.9557 96.4209L14.9432 110.596C11.8361 113.041 7.20376 112.661 4.5966 109.747C1.98944 106.833 2.39472 102.489 5.50181 100.043L23.5144 85.8683Z" fill="url(#paint7_linear)"/>
<path d="M5.79036 108.707L12.2604 107.306L18.7351 123.222L13.6735 126.157L5.79036 108.707Z" fill="url(#paint8_linear)"/>
<path d="M13.428 123.509C13.8913 122.022 15.614 121.226 17.1542 121.787C18.522 122.286 19.2525 123.686 18.8333 125.005L14.66 138.137C14.1038 139.888 11.8498 140.572 10.3056 139.459C9.39731 138.805 9.01056 137.694 9.3317 136.663L13.428 123.509Z" fill="url(#paint9_linear)"/>
<path d="M2.79224 105.432L8.89465 104.8L9.28577 117.802L3.81495 117.861L2.79224 105.432Z" fill="url(#paint10_linear)"/>
<path d="M3.63384 117.057C3.76509 116.36 4.17002 115.735 4.76874 115.304C6.95846 113.729 10.0668 115.51 9.57193 118.056L5.87292 137.087C5.58206 138.584 4.06135 139.582 2.46257 139.326C0.844428 139.067 -0.239929 137.622 0.0456419 136.106L3.63384 117.057Z" fill="url(#paint11_linear)"/>
<path d="M30.5499 92.0346C30.3912 91.6202 30.3548 91.1734 30.4446 90.7412C30.9488 88.313 34.5395 88.0436 35.4489 90.3658L38.0219 96.9359C38.5252 98.221 37.8177 99.6448 36.4447 100.11C35.0752 100.574 33.5643 99.9071 33.0722 98.6219L30.5499 92.0346Z" fill="url(#paint12_linear)"/>
<path d="M35.4044 101.088C34.1079 100.646 33.4394 99.3012 33.9113 98.0853C34.3832 96.8694 35.8168 96.2424 37.1132 96.685L47.3847 100.191C48.6812 100.634 49.3497 101.978 48.8778 103.194C48.4059 104.41 46.9723 105.037 45.6759 104.594L35.4044 101.088Z" fill="url(#paint13_linear)"/>
<path d="M33.8748 120.497C33.8748 119.862 34.4241 119.347 35.1016 119.347H64.545C65.2226 119.347 65.7718 119.862 65.7718 120.497C65.7718 121.133 65.2226 121.648 64.545 121.648H35.1016C34.4241 121.648 33.8748 121.133 33.8748 120.497Z" fill="url(#paint14_linear)"/>
<path d="M37.1463 115.128C37.1463 113.645 38.4279 112.443 40.0088 112.443H52.2769C53.8579 112.443 55.1395 113.645 55.1395 115.128C55.1395 116.61 53.8579 117.812 52.2769 117.812H40.0088C38.4279 117.812 37.1463 116.61 37.1463 115.128Z" fill="url(#paint15_linear)"/>
<path d="M39.3501 108.608L41.554 109.758L42.0535 114.293L37.1463 115.511L39.3501 108.608Z" fill="url(#paint16_linear)"/>
<path d="M36.7307 107.975C36.9002 107.505 37.4564 107.266 37.9463 107.453L41.0332 108.628C41.6586 108.866 41.8199 109.627 41.3391 110.071C41.0692 110.321 40.6657 110.394 40.3162 110.256L37.2449 109.045C36.8007 108.87 36.5763 108.403 36.7307 107.975Z" fill="url(#paint17_linear)"/>
<path d="M52.6484 115.187C52.3407 115.025 52.1267 114.743 52.0655 114.417L51.2648 110.159C51.1462 109.528 51.5954 108.926 52.2682 108.815C52.9541 108.701 53.6046 109.141 53.7066 109.788L54.3814 114.065C54.5239 114.969 53.4984 115.632 52.6484 115.187Z" fill="url(#paint18_linear)"/>
<path d="M62.5003 113.977C62.5003 115.672 61.0356 117.045 59.2288 117.045C57.422 117.045 55.9573 115.672 55.9573 113.977C55.9573 112.283 57.422 110.909 59.2288 110.909C61.0356 110.909 62.5003 112.283 62.5003 113.977Z" fill="url(#paint19_linear)"/>
<path fill-rule="evenodd" clip-rule="evenodd" d="M107.114 140C125.276 140 140 125.316 140 107.203C140 89.0899 125.276 74.4062 107.114 74.4062C88.9517 74.4062 74.2282 89.0899 74.2282 107.203C74.2282 125.316 88.9517 140 107.114 140ZM104.703 101.797V119.619H109.492V101.797H104.703ZM105.132 95.4222C104.659 95.8834 104.422 96.4709 104.422 97.1847C104.422 97.9094 104.664 98.5024 105.149 98.9636C105.644 99.4248 106.294 99.6554 107.098 99.6554C107.901 99.6554 108.546 99.4248 109.03 98.9636C109.525 98.5024 109.773 97.9094 109.773 97.1847C109.773 96.4709 109.531 95.8834 109.047 95.4222C108.562 94.961 107.912 94.7304 107.098 94.7304C106.272 94.7304 105.617 94.961 105.132 95.4222Z" fill="url(#paint20_linear)"/>
<defs>
<linearGradient id="paint0_linear" x1="70" y1="0" x2="70" y2="140" gradientUnits="userSpaceOnUse">
<stop stop-color="#5680E9"/>
<stop offset="1" stop-color="#5AB9EA"/>
</linearGradient>
<linearGradient id="paint1_linear" x1="70" y1="0" x2="70" y2="140" gradientUnits="userSpaceOnUse">
<stop stop-color="#5680E9"/>
<stop offset="1" stop-color="#5AB9EA"/>
</linearGradient>
<linearGradient id="paint2_linear" x1="70" y1="0" x2="70" y2="140" gradientUnits="userSpaceOnUse">
<stop stop-color="#5680E9"/>
<stop offset="1" stop-color="#5AB9EA"/>
</linearGradient>
<linearGradient id="paint3_linear" x1="70" y1="0" x2="70" y2="140" gradientUnits="userSpaceOnUse">
<stop stop-color="#5680E9"/>
<stop offset="1" stop-color="#5AB9EA"/>
</linearGradient>
<linearGradient id="paint4_linear" x1="70" y1="0" x2="70" y2="140" gradientUnits="userSpaceOnUse">
<stop stop-color="#5680E9"/>
<stop offset="1" stop-color="#5AB9EA"/>
</linearGradient>
<linearGradient id="paint5_linear" x1="70" y1="0" x2="70" y2="140" gradientUnits="userSpaceOnUse">
<stop stop-color="#5680E9"/>
<stop offset="1" stop-color="#5AB9EA"/>
</linearGradient>
<linearGradient id="paint6_linear" x1="70" y1="0" x2="70" y2="140" gradientUnits="userSpaceOnUse">
<stop stop-color="#5680E9"/>
<stop offset="1" stop-color="#5AB9EA"/>
</linearGradient>
<linearGradient id="paint7_linear" x1="70" y1="0" x2="70" y2="140" gradientUnits="userSpaceOnUse">
<stop stop-color="#5680E9"/>
<stop offset="1" stop-color="#5AB9EA"/>
</linearGradient>
<linearGradient id="paint8_linear" x1="70" y1="0" x2="70" y2="140" gradientUnits="userSpaceOnUse">
<stop stop-color="#5680E9"/>
<stop offset="1" stop-color="#5AB9EA"/>
</linearGradient>
<linearGradient id="paint9_linear" x1="70" y1="0" x2="70" y2="140" gradientUnits="userSpaceOnUse">
<stop stop-color="#5680E9"/>
<stop offset="1" stop-color="#5AB9EA"/>
</linearGradient>
<linearGradient id="paint10_linear" x1="70" y1="0" x2="70" y2="140" gradientUnits="userSpaceOnUse">
<stop stop-color="#5680E9"/>
<stop offset="1" stop-color="#5AB9EA"/>
</linearGradient>
<linearGradient id="paint11_linear" x1="70" y1="0" x2="70" y2="140" gradientUnits="userSpaceOnUse">
<stop stop-color="#5680E9"/>
<stop offset="1" stop-color="#5AB9EA"/>
</linearGradient>
<linearGradient id="paint12_linear" x1="70" y1="0" x2="70" y2="140" gradientUnits="userSpaceOnUse">
<stop stop-color="#5680E9"/>
<stop offset="1" stop-color="#5AB9EA"/>
</linearGradient>
<linearGradient id="paint13_linear" x1="70" y1="0" x2="70" y2="140" gradientUnits="userSpaceOnUse">
<stop stop-color="#5680E9"/>
<stop offset="1" stop-color="#5AB9EA"/>
</linearGradient>
<linearGradient id="paint14_linear" x1="70" y1="0" x2="70" y2="140" gradientUnits="userSpaceOnUse">
<stop stop-color="#5680E9"/>
<stop offset="1" stop-color="#5AB9EA"/>
</linearGradient>
<linearGradient id="paint15_linear" x1="70" y1="0" x2="70" y2="140" gradientUnits="userSpaceOnUse">
<stop stop-color="#5680E9"/>
<stop offset="1" stop-color="#5AB9EA"/>
</linearGradient>
<linearGradient id="paint16_linear" x1="70" y1="0" x2="70" y2="140" gradientUnits="userSpaceOnUse">
<stop stop-color="#5680E9"/>
<stop offset="1" stop-color="#5AB9EA"/>
</linearGradient>
<linearGradient id="paint17_linear" x1="70" y1="0" x2="70" y2="140" gradientUnits="userSpaceOnUse">
<stop stop-color="#5680E9"/>
<stop offset="1" stop-color="#5AB9EA"/>
</linearGradient>
<linearGradient id="paint18_linear" x1="70" y1="0" x2="70" y2="140" gradientUnits="userSpaceOnUse">
<stop stop-color="#5680E9"/>
<stop offset="1" stop-color="#5AB9EA"/>
</linearGradient>
<linearGradient id="paint19_linear" x1="70" y1="0" x2="70" y2="140" gradientUnits="userSpaceOnUse">
<stop stop-color="#5680E9"/>
<stop offset="1" stop-color="#5AB9EA"/>
</linearGradient>
<linearGradient id="paint20_linear" x1="70" y1="0" x2="70" y2="140" gradientUnits="userSpaceOnUse">
<stop stop-color="#5680E9"/>
<stop offset="1" stop-color="#5AB9EA"/>
</linearGradient>
</defs>
</svg>
