<svg width="81" height="140" viewBox="0 0 81 140" fill="none" xmlns="http://www.w3.org/2000/svg">
<path fill-rule="evenodd" clip-rule="evenodd" d="M21.0671 5.0317C21.649 1.72057 24.7959 -0.490336 28.0959 0.0935054L75.9852 8.56613C79.2852 9.14997 81.4887 12.3075 80.9068 15.6186L59.9329 134.968C59.351 138.279 56.2041 140.49 52.9041 139.906L5.0148 131.434C1.71479 130.85 -0.488688 127.693 0.0931921 124.381L21.0671 5.0317ZM43.5716 8.63521C43.6626 8.11709 44.1551 7.77112 44.6715 7.86248L57.7614 10.1784C58.2778 10.2697 58.6226 10.7638 58.5315 11.2819C58.4405 11.8001 57.948 12.146 57.4317 12.0547L44.3417 9.73877C43.8253 9.64741 43.4805 9.15333 43.5716 8.63521ZM78.1123 20.5501L22.0126 10.6249L2.88823 119.45L58.988 129.375L78.1123 20.5501Z" fill="url(#paint0_linear)"/>
<defs>
<linearGradient id="paint0_linear" x1="45.4119" y1="-4.58139" x2="36.1892" y2="165.493" gradientUnits="userSpaceOnUse">
<stop stop-color="#5680E9"/>
<stop offset="1" stop-color="#5AB9EA"/>
</linearGradient>
</defs>
</svg>
