<svg width="140" height="140" viewBox="0 0 140 140" fill="none" xmlns="http://www.w3.org/2000/svg">
<path d="M70.0001 11.6667C37.8001 11.6667 11.6667 37.8 11.6667 70C11.6667 102.2 37.8001 128.333 70.0001 128.333C102.2 128.333 128.333 102.2 128.333 70C128.333 37.8 102.2 11.6667 70.0001 11.6667ZM46.6668 102.083C38.6168 102.083 32.0834 95.55 32.0834 87.5C32.0834 79.45 38.6168 72.9167 46.6668 72.9167C54.7168 72.9167 61.2501 79.45 61.2501 87.5C61.2501 95.55 54.7168 102.083 46.6668 102.083ZM55.4168 46.6667C55.4168 38.6167 61.9501 32.0833 70.0001 32.0833C78.0501 32.0833 84.5834 38.6167 84.5834 46.6667C84.5834 54.7167 78.0501 61.25 70.0001 61.25C61.9501 61.25 55.4168 54.7167 55.4168 46.6667ZM93.3334 102.083C85.2834 102.083 78.7501 95.55 78.7501 87.5C78.7501 79.45 85.2834 72.9167 93.3334 72.9167C101.383 72.9167 107.917 79.45 107.917 87.5C107.917 95.55 101.383 102.083 93.3334 102.083Z" fill="black"/>
</svg>
