<svg width="38" height="38" viewBox="0 0 38 38" fill="none" xmlns="http://www.w3.org/2000/svg">
<circle cx="19" cy="19" r="19" fill="#007AFF"/>
<path d="M16.8824 11.5714C16.6235 11.5714 16.4118 11.4952 16.2471 11.3429C16.0824 11.1905 16 10.9946 16 10.7551V7.81633C16 7.57687 16.0824 7.38095 16.2471 7.22857C16.4118 7.07619 16.6235 7 16.8824 7H21.1176C21.3765 7 21.5882 7.07619 21.7529 7.22857C21.9176 7.38095 22 7.57687 22 7.81633V10.7551C22 10.9946 21.9176 11.1905 21.7529 11.3429C21.5882 11.4952 21.3765 11.5714 21.1176 11.5714H16.8824ZM16.9176 31C16.6588 31 16.4471 30.9238 16.2824 30.7714C16.1176 30.619 16.0353 30.4231 16.0353 30.1837V14.8367C16.0353 14.5973 16.1176 14.4014 16.2824 14.249C16.4471 14.0966 16.6588 14.0204 16.9176 14.0204H21.0824C21.3412 14.0204 21.5529 14.0966 21.7176 14.249C21.8824 14.4014 21.9647 14.5973 21.9647 14.8367V30.1837C21.9647 30.4014 21.8824 30.5973 21.7176 30.7714C21.5529 30.9238 21.3412 31 21.0824 31H16.9176Z" fill="white"/>
</svg>
