<svg width="38" height="38" viewBox="0 0 38 38" fill="none" xmlns="http://www.w3.org/2000/svg">
<circle cx="19" cy="19" r="19" fill="#007AFF"/>
<path d="M19 14.737C16.6447 14.737 14.737 16.6447 14.737 19C14.737 21.3554 16.6447 23.2631 19 23.2631C21.3554 23.2631 23.2631 21.3554 23.2631 19C23.2631 16.6447 21.3554 14.737 19 14.737ZM28.5279 17.9343C28.0377 13.49 24.51 9.96234 20.0658 9.47208V7.27661H17.9343V9.47208C13.49 9.96234 9.96234 13.49 9.47208 17.9343H7.27661V20.0658H9.47208C9.96234 24.51 13.49 28.0377 17.9343 28.5279V30.7234H20.0658V28.5279C24.51 28.0377 28.0377 24.51 28.5279 20.0658H30.7234V17.9343H28.5279ZM19 26.4604C14.8755 26.4604 11.5397 23.1245 11.5397 19C11.5397 14.8755 14.8755 11.5397 19 11.5397C23.1245 11.5397 26.4604 14.8755 26.4604 19C26.4604 23.1245 23.1245 26.4604 19 26.4604Z" fill="white"/>
</svg>
