<svg width="38" height="36" viewBox="0 0 38 36" fill="none" xmlns="http://www.w3.org/2000/svg">
<path d="M3.80697 14.1932C3.85195 14.0849 4.00841 14.0849 4.0534 14.1932L5.04547 16.5825C5.06007 16.6177 5.08957 16.6448 5.12627 16.657L7.76975 17.5287C7.89058 17.5685 7.89058 17.7361 7.76975 17.7759L5.12627 18.6476C5.08957 18.6597 5.06007 18.6869 5.04547 18.7221L4.0534 21.1114C4.00841 21.2197 3.85195 21.2197 3.80697 21.1114L2.8149 18.7221C2.8003 18.6869 2.7708 18.6597 2.7341 18.6476L0.0906211 17.7759C-0.030207 17.7361 -0.0302071 17.5685 0.090621 17.5287L2.7341 16.657C2.7708 16.6448 2.8003 16.6177 2.8149 16.5825L3.80697 14.1932Z" fill="#007AFF"/>
<path fill-rule="evenodd" clip-rule="evenodd" d="M10.6988 0C9.99351 0 9.42173 0.585422 9.42173 1.30758V14.374H28.5783V1.30758C28.5783 0.585423 28.0065 0 27.3012 0H10.6988ZM22.1945 2.52175C21.8639 2.52175 21.5959 2.78453 21.5959 3.10867V3.33766C21.5959 3.66181 21.8639 3.92458 22.1945 3.92458H25.7688C26.0994 3.92458 26.3675 3.66181 26.3675 3.33766V3.10867C26.3675 2.78453 26.0994 2.52175 25.7688 2.52175H22.1945Z" fill="#007AFF"/>
<path d="M14.9207 26.4036C11.8683 24.734 9.69873 21.2486 9.44636 17.1479H28.5536C28.3013 21.2486 26.1317 24.7339 23.0794 26.4036C22.9238 27.0239 22.8416 27.6702 22.8416 28.3342C22.8416 30.4537 23.6793 32.3925 25.0653 33.8832C25.5059 34.3571 25.2028 35.3046 24.5638 35.3046H13.4362C12.7972 35.3046 12.4941 34.3571 12.9347 33.8832C14.3208 32.3925 15.1584 30.4537 15.1584 28.3342C15.1584 27.6702 15.0762 27.0239 14.9207 26.4036Z" fill="#007AFF"/>
<path d="M33.9466 0.296742C33.9916 0.188409 34.148 0.188409 34.193 0.296743L35.1851 2.68602C35.1997 2.72118 35.2292 2.74836 35.2659 2.76046L37.9094 3.63219C38.0302 3.67203 38.0302 3.83958 37.9094 3.87943L35.2659 4.75115C35.2292 4.76326 35.1997 4.79044 35.1851 4.8256L34.193 7.21487C34.148 7.32321 33.9916 7.32321 33.9466 7.21487L32.9545 4.8256C32.9399 4.79044 32.9104 4.76326 32.8737 4.75115L30.2303 3.87943C30.1094 3.83958 30.1094 3.67203 30.2303 3.63219L32.8737 2.76046C32.9104 2.74836 32.9399 2.72118 32.9545 2.68602L33.9466 0.296742Z" fill="#007AFF"/>
</svg>
