<svg width="38" height="36" viewBox="0 0 38 36" fill="none" xmlns="http://www.w3.org/2000/svg">
<path d="M3.80697 14.4728C3.85195 14.3623 4.00841 14.3623 4.0534 14.4728L5.04547 16.9091C5.06007 16.945 5.08957 16.9727 5.12627 16.985L7.76975 17.8739C7.89058 17.9146 7.89058 18.0854 7.76975 18.1261L5.12627 19.015C5.08957 19.0273 5.06007 19.055 5.04547 19.0909L4.0534 21.5272C4.00841 21.6377 3.85195 21.6377 3.80697 21.5272L2.8149 19.0909C2.8003 19.055 2.7708 19.0273 2.7341 19.015L0.0906211 18.1261C-0.030207 18.0854 -0.0302071 17.9146 0.090621 17.8739L2.7341 16.985C2.7708 16.9727 2.8003 16.945 2.8149 16.9091L3.80697 14.4728Z" fill="url(#paint0_linear)"/>
<path fill-rule="evenodd" clip-rule="evenodd" d="M10.6988 0C9.99351 0 9.42173 0.596953 9.42173 1.33333V14.6571H28.5783V1.33333C28.5783 0.596954 28.0065 0 27.3012 0H10.6988ZM22.1945 2.57142C21.8639 2.57142 21.5959 2.83937 21.5959 3.16991V3.40341C21.5959 3.73394 21.8639 4.00189 22.1945 4.00189H25.7688C26.0994 4.00189 26.3675 3.73394 26.3675 3.40341V3.16991C26.3675 2.83937 26.0994 2.57142 25.7688 2.57142H22.1945Z" fill="url(#paint1_linear)"/>
<path d="M14.9207 26.9237C11.8683 25.2211 9.69873 21.6672 9.44636 17.4857H28.5536C28.3013 21.6672 26.1317 25.2211 23.0794 26.9237C22.9238 27.5562 22.8416 28.2152 22.8416 28.8923C22.8416 31.0536 23.6793 33.0305 25.0653 34.5506C25.5059 35.0339 25.2028 36 24.5638 36H13.4362C12.7972 36 12.4941 35.0339 12.9347 34.5506C14.3208 33.0305 15.1584 31.0536 15.1584 28.8923C15.1584 28.2152 15.0762 27.5562 14.9207 26.9237Z" fill="url(#paint2_linear)"/>
<path d="M33.9466 0.302587C33.9916 0.19212 34.148 0.19212 34.193 0.302588L35.1851 2.73892C35.1997 2.77478 35.2292 2.80249 35.2659 2.81484L37.9094 3.70373C38.0302 3.74436 38.0302 3.91521 37.9094 3.95584L35.2659 4.84474C35.2292 4.85708 35.1997 4.8848 35.1851 4.92065L34.193 7.35699C34.148 7.46745 33.9916 7.46745 33.9466 7.35699L32.9545 4.92065C32.9399 4.8848 32.9104 4.85708 32.8737 4.84474L30.2303 3.95584C30.1094 3.91521 30.1094 3.74436 30.2303 3.70373L32.8737 2.81484C32.9104 2.80249 32.9399 2.77478 32.9545 2.73892L33.9466 0.302587Z" fill="url(#paint3_linear)"/>
<defs>
<linearGradient id="paint0_linear" x1="27.4674" y1="-1.09243e-06" x2="12.7587" y2="35.9813" gradientUnits="userSpaceOnUse">
<stop stop-color="#5AB9EA"/>
<stop offset="0.484375" stop-color="#5680E9"/>
<stop offset="1" stop-color="#8860D0"/>
</linearGradient>
<linearGradient id="paint1_linear" x1="27.4674" y1="-1.09243e-06" x2="12.7587" y2="35.9813" gradientUnits="userSpaceOnUse">
<stop stop-color="#5AB9EA"/>
<stop offset="0.484375" stop-color="#5680E9"/>
<stop offset="1" stop-color="#8860D0"/>
</linearGradient>
<linearGradient id="paint2_linear" x1="27.4674" y1="-1.09243e-06" x2="12.7587" y2="35.9813" gradientUnits="userSpaceOnUse">
<stop stop-color="#5AB9EA"/>
<stop offset="0.484375" stop-color="#5680E9"/>
<stop offset="1" stop-color="#8860D0"/>
</linearGradient>
<linearGradient id="paint3_linear" x1="27.4674" y1="-1.09243e-06" x2="12.7587" y2="35.9813" gradientUnits="userSpaceOnUse">
<stop stop-color="#5AB9EA"/>
<stop offset="0.484375" stop-color="#5680E9"/>
<stop offset="1" stop-color="#8860D0"/>
</linearGradient>
</defs>
</svg>
