<svg width="100" height="95" viewBox="0 0 100 95" fill="none" xmlns="http://www.w3.org/2000/svg">
<path d="M49.4381 0.150828C49.7858 -0.0502762 50.2142 -0.050276 50.5619 0.150828L64.0372 7.94434C64.3849 8.14544 64.5991 8.5171 64.5991 8.91931V24.5063C64.5991 24.9085 64.3849 25.2802 64.0372 25.4813L50.5619 33.2748C50.2142 33.4759 49.7858 33.4759 49.4381 33.2748L35.9628 25.4813C35.6151 25.2802 35.4009 24.9085 35.4009 24.5063V8.91931C35.4009 8.5171 35.6151 8.14544 35.9628 7.94434L49.4381 0.150828Z" fill="#ED254E"/>
<path d="M31.7376 30.5474C32.0853 30.3463 32.5137 30.3463 32.8615 30.5474L46.3367 38.3409C46.6844 38.542 46.8986 38.9137 46.8986 39.3159V54.9029C46.8986 55.3051 46.6844 55.6767 46.3367 55.8779L32.8615 63.6714C32.5137 63.8725 32.0853 63.8725 31.7376 63.6714L18.2624 55.8779C17.9147 55.6767 17.7005 55.3051 17.7005 54.9029V39.3159C17.7005 38.9137 17.9147 38.542 18.2624 38.3409L31.7376 30.5474Z" fill="#ED254E"/>
<path d="M67.1385 30.5474C67.4863 30.3463 67.9147 30.3463 68.2624 30.5474L81.7376 38.3409C82.0853 38.542 82.2995 38.9137 82.2995 39.3159V54.9029C82.2995 55.3051 82.0853 55.6767 81.7376 55.8779L68.2624 63.6714C67.9147 63.8725 67.4863 63.8725 67.1385 63.6714L53.6633 55.8779C53.3156 55.6767 53.1014 55.3051 53.1014 54.9029V39.3159C53.1014 38.9137 53.3156 38.542 53.6633 38.3409L67.1385 30.5474Z" fill="#ED254E"/>
<path d="M14.0372 60.9439C14.3849 60.7428 14.8133 60.7428 15.161 60.9439L28.6363 68.7375C28.984 68.9386 29.1982 69.3102 29.1982 69.7124V85.2994C29.1982 85.7017 28.984 86.0733 28.6363 86.2744L15.161 94.0679C14.8133 94.269 14.3849 94.269 14.0372 94.0679L0.561919 86.2744C0.214202 86.0733 0 85.7017 0 85.2994V69.7124C0 69.3102 0.214202 68.9386 0.561919 68.7375L14.0372 60.9439Z" fill="#ED254E"/>
<path d="M49.4381 60.9439C49.7858 60.7428 50.2142 60.7428 50.5619 60.9439L64.0372 68.7375C64.3849 68.9386 64.5991 69.3102 64.5991 69.7124V85.2994C64.5991 85.7017 64.3849 86.0733 64.0372 86.2744L50.5619 94.0679C50.2142 94.269 49.7858 94.269 49.4381 94.0679L35.9628 86.2744C35.6151 86.0733 35.4009 85.7017 35.4009 85.2994V69.7124C35.4009 69.3102 35.6151 68.9386 35.9628 68.7375L49.4381 60.9439Z" fill="#ED254E"/>
<path d="M84.839 60.9439C85.1867 60.7428 85.6151 60.7428 85.9628 60.9439L99.4381 68.7375C99.7858 68.9386 100 69.3102 100 69.7124V85.2994C100 85.7017 99.7858 86.0733 99.4381 86.2744L85.9628 94.0679C85.6151 94.269 85.1867 94.269 84.839 94.0679L71.3637 86.2744C71.016 86.0733 70.8018 85.7017 70.8018 85.2994V69.7124C70.8018 69.3102 71.016 68.9386 71.3637 68.7375L84.839 60.9439Z" fill="#ED254E"/>
</svg>
