<svg width="127" height="277" viewBox="0 0 127 277" fill="none" xmlns="http://www.w3.org/2000/svg">
<path fill-rule="evenodd" clip-rule="evenodd" d="M0.768314 13.3743C0.76355 6.43858 6.36096 0.819946 13.2705 0.82471L113.541 0.893839C120.45 0.898603 126.055 6.52496 126.06 13.4607L126.232 263.458C126.236 270.394 120.639 276.012 113.73 276.008L13.4594 275.939C6.54991 275.934 0.944783 270.307 0.940019 263.372L0.768314 13.3743ZM47.7525 12.6388C47.7518 11.5535 48.6277 10.6743 49.7089 10.675L77.1164 10.6939C78.1976 10.6946 79.0747 11.5751 79.0755 12.6604C79.0762 13.7456 78.2003 14.6248 77.1191 14.6241L49.7116 14.6052C48.6304 14.6045 47.7533 13.7241 47.7525 12.6388ZM122.153 24.4808L4.69175 24.3998L4.84831 252.351L122.309 252.432L122.153 24.4808Z" fill="url(#paint0_linear)"/>
<path d="M21.7196 128.604C21.8463 128.294 22.2869 128.294 22.4135 128.604L25.207 135.439C25.2481 135.54 25.3312 135.618 25.4345 135.652L32.878 138.146C33.2182 138.26 33.2182 138.74 32.878 138.854L25.4345 141.347C25.3312 141.382 25.2481 141.46 25.207 141.56L22.4135 148.396C22.2869 148.706 21.8463 148.706 21.7196 148.396L18.9262 141.56C18.8851 141.46 18.802 141.382 18.6986 141.347L11.2552 138.854C10.9149 138.74 10.9149 138.26 11.2552 138.146L18.6986 135.652C18.802 135.618 18.8851 135.54 18.9262 135.439L21.7196 128.604Z" fill="url(#paint1_linear)"/>
<path fill-rule="evenodd" clip-rule="evenodd" d="M41.1257 87.9999C39.1396 87.9999 37.5296 89.6747 37.5296 91.7406V129.121H91.4704V91.7406C91.4704 89.6747 89.8604 87.9999 87.8743 87.9999H41.1257ZM73.495 95.2142C72.5641 95.2142 71.8094 95.9659 71.8094 96.8932V97.5483C71.8094 98.4757 72.5641 99.2274 73.495 99.2274H83.5595C84.4905 99.2274 85.2452 98.4757 85.2452 97.5483V96.8932C85.2452 95.9659 84.4905 95.2142 83.5595 95.2142H73.495Z" fill="url(#paint2_linear)"/>
<path d="M53.0134 163.536C44.4186 158.759 38.3096 148.788 37.5989 137.057H91.401C90.6904 148.788 84.5815 158.759 75.9867 163.536C75.5487 165.31 75.3172 167.159 75.3172 169.059C75.3172 175.123 77.6758 180.669 81.5787 184.934C82.8194 186.289 81.9659 189 80.1665 189H48.8336C47.0342 189 46.1807 186.289 47.4214 184.934C51.3243 180.669 53.6829 175.123 53.6829 169.059C53.6829 167.159 53.4514 165.31 53.0134 163.536Z" fill="url(#paint3_linear)"/>
<path d="M106.586 88.8488C106.713 88.5389 107.154 88.5389 107.28 88.8488L110.074 95.6841C110.115 95.7847 110.198 95.8624 110.301 95.8971L117.745 98.3909C118.085 98.5049 118.085 98.9842 117.745 99.0982L110.301 101.592C110.198 101.627 110.115 101.704 110.074 101.805L107.28 108.64C107.154 108.95 106.713 108.95 106.586 108.64L103.793 101.805C103.752 101.704 103.669 101.627 103.565 101.592L96.122 99.0982C95.7818 98.9842 95.7818 98.5049 96.122 98.3909L103.565 95.8971C103.669 95.8624 103.752 95.7847 103.793 95.6841L106.586 88.8488Z" fill="url(#paint4_linear)"/>
<defs>
<linearGradient id="paint0_linear" x1="64.5" y1="88" x2="64.5" y2="189" gradientUnits="userSpaceOnUse">
<stop stop-color="#5680E9"/>
<stop offset="1" stop-color="#8860D0"/>
</linearGradient>
<linearGradient id="paint1_linear" x1="64.5" y1="88" x2="64.5" y2="189" gradientUnits="userSpaceOnUse">
<stop stop-color="#5680E9"/>
<stop offset="1" stop-color="#8860D0"/>
</linearGradient>
<linearGradient id="paint2_linear" x1="64.5" y1="88" x2="64.5" y2="189" gradientUnits="userSpaceOnUse">
<stop stop-color="#5680E9"/>
<stop offset="1" stop-color="#8860D0"/>
</linearGradient>
<linearGradient id="paint3_linear" x1="64.5" y1="88" x2="64.5" y2="189" gradientUnits="userSpaceOnUse">
<stop stop-color="#5680E9"/>
<stop offset="1" stop-color="#8860D0"/>
</linearGradient>
<linearGradient id="paint4_linear" x1="64.5" y1="88" x2="64.5" y2="189" gradientUnits="userSpaceOnUse">
<stop stop-color="#5680E9"/>
<stop offset="1" stop-color="#8860D0"/>
</linearGradient>
</defs>
</svg>
