<svg width="300" height="333" viewBox="0 0 300 333" fill="none" xmlns="http://www.w3.org/2000/svg">
<path d="M68.4124 2.13414C69.1947 -0.459512 72.742 -0.769859 73.9628 1.64855L97.4724 48.2232C97.8663 49.0035 98.5808 49.5732 99.4292 49.7834L152.421 62.9098C155.195 63.5969 155.528 67.4059 152.915 68.5643L103.008 90.6932C102.209 91.0475 101.605 91.7326 101.352 92.5694L86.2873 142.519C85.5051 145.113 81.9577 145.423 80.737 143.005L57.2273 96.4298C56.8335 95.6496 56.1189 95.0799 55.2705 94.8697L2.27916 81.7432C-0.49478 81.0561 -0.828019 77.2471 1.78446 76.0888L51.6913 53.9599C52.4904 53.6056 53.0951 52.9205 53.3475 52.0836L68.4124 2.13414Z" fill="url(#paint0_linear)"/>
<path d="M194.296 69.6337C196.101 67.6108 199.45 68.8299 199.533 71.5398L200.016 87.4134C200.042 88.2872 200.449 89.1058 201.129 89.6553L213.661 99.785C215.882 101.58 214.575 105.17 211.72 105.118L195.608 104.822C194.734 104.806 193.897 105.172 193.315 105.824L182.742 117.674C180.937 119.697 177.587 118.477 177.505 115.767L177.022 99.8938C176.995 99.0201 176.589 98.2015 175.909 97.652L163.377 87.5223C161.156 85.727 162.462 82.1373 165.318 82.1897L181.429 82.4853C182.303 82.5013 183.141 82.1353 183.723 81.4831L194.296 69.6337Z" fill="url(#paint1_linear)"/>
<path d="M13.4395 152.074C11.0515 150.79 8.32088 153.082 9.17023 155.656L17.3562 180.47C17.63 181.3 17.5282 182.209 17.0773 182.958L3.17042 206.056C1.69736 208.502 4.15288 211.429 6.81815 210.403L31.9804 200.718C32.7962 200.404 33.7083 200.462 34.4783 200.876L57.494 213.246C59.882 214.53 62.6126 212.238 61.7632 209.664L53.5773 184.85C53.3035 184.02 53.4053 183.111 53.8562 182.362L67.7631 159.264C69.2361 156.818 66.7806 153.891 64.1153 154.917L38.9531 164.602C38.1373 164.916 37.2252 164.858 36.4552 164.444L13.4395 152.074Z" fill="url(#paint2_linear)"/>
<path fill-rule="evenodd" clip-rule="evenodd" d="M129.768 50.3744C129.764 43.4387 135.361 37.8201 142.27 37.8248L242.541 37.894C249.45 37.8987 255.055 43.5251 255.06 50.4608L255.232 300.458C255.236 307.394 249.639 313.013 242.73 313.008L142.459 312.939C135.55 312.934 129.945 307.308 129.94 300.372L129.768 50.3744ZM176.753 49.6389C176.752 48.5536 177.628 47.6744 178.709 47.6751L206.116 47.694C207.198 47.6948 208.075 48.5752 208.075 49.6605C208.076 50.7458 207.2 51.625 206.119 51.6242L178.712 51.6053C177.63 51.6046 176.753 50.7242 176.753 49.6389ZM251.153 61.4809L133.692 61.3999L133.848 289.351L251.309 289.432L251.153 61.4809Z" fill="url(#paint3_linear)"/>
<path d="M150.72 165.604C150.846 165.294 151.287 165.294 151.414 165.604L154.207 172.44C154.248 172.54 154.331 172.618 154.435 172.652L161.878 175.146C162.218 175.26 162.218 175.74 161.878 175.854L154.435 178.348C154.331 178.382 154.248 178.46 154.207 178.56L151.414 185.396C151.287 185.706 150.846 185.706 150.72 185.396L147.926 178.56C147.885 178.46 147.802 178.382 147.699 178.348L140.255 175.854C139.915 175.74 139.915 175.26 140.255 175.146L147.699 172.652C147.802 172.618 147.885 172.54 147.926 172.44L150.72 165.604Z" fill="url(#paint4_linear)"/>
<path fill-rule="evenodd" clip-rule="evenodd" d="M170.126 125C168.14 125 166.53 126.675 166.53 128.741V166.121H220.47V128.741C220.47 126.675 218.86 125 216.874 125H170.126ZM202.495 132.214C201.564 132.214 200.809 132.966 200.809 133.893V134.548C200.809 135.476 201.564 136.228 202.495 136.228H212.56C213.49 136.228 214.245 135.476 214.245 134.548V133.893C214.245 132.966 213.491 132.214 212.56 132.214H202.495Z" fill="url(#paint5_linear)"/>
<path d="M182.013 200.536C173.419 195.759 167.31 185.788 166.599 174.057H220.401C219.69 185.788 213.581 195.759 204.987 200.536C204.549 202.311 204.317 204.159 204.317 206.059C204.317 212.123 206.676 217.669 210.579 221.934C211.819 223.289 210.966 226 209.167 226H177.834C176.034 226 175.181 223.289 176.421 221.934C180.324 217.669 182.683 212.123 182.683 206.059C182.683 204.159 182.451 202.311 182.013 200.536Z" fill="url(#paint6_linear)"/>
<path d="M235.586 125.849C235.713 125.539 236.154 125.539 236.28 125.849L239.074 132.684C239.115 132.785 239.198 132.863 239.301 132.897L246.745 135.391C247.085 135.505 247.085 135.984 246.745 136.098L239.301 138.592C239.198 138.627 239.115 138.705 239.074 138.805L236.28 145.64C236.154 145.95 235.713 145.95 235.586 145.64L232.793 138.805C232.752 138.705 232.669 138.627 232.565 138.592L225.122 136.098C224.782 135.984 224.782 135.505 225.122 135.391L232.565 132.897C232.669 132.863 232.752 132.785 232.793 132.684L235.586 125.849Z" fill="url(#paint7_linear)"/>
<defs>
<linearGradient id="paint0_linear" x1="107.391" y1="0" x2="107.391" y2="213.614" gradientUnits="userSpaceOnUse">
<stop stop-color="#5AB9EA"/>
<stop offset="1" stop-color="#90DCF4"/>
</linearGradient>
<linearGradient id="paint1_linear" x1="107.391" y1="0" x2="107.391" y2="213.614" gradientUnits="userSpaceOnUse">
<stop stop-color="#5AB9EA"/>
<stop offset="1" stop-color="#90DCF4"/>
</linearGradient>
<linearGradient id="paint2_linear" x1="107.391" y1="0" x2="107.391" y2="213.614" gradientUnits="userSpaceOnUse">
<stop stop-color="#5AB9EA"/>
<stop offset="1" stop-color="#90DCF4"/>
</linearGradient>
<linearGradient id="paint3_linear" x1="175.754" y1="22.1272" x2="217.933" y2="370.98" gradientUnits="userSpaceOnUse">
<stop stop-color="#5680E9"/>
<stop offset="1" stop-color="#8860D0"/>
</linearGradient>
<linearGradient id="paint4_linear" x1="193.5" y1="125" x2="193.5" y2="226" gradientUnits="userSpaceOnUse">
<stop stop-color="#5680E9"/>
<stop offset="1" stop-color="#8860D0"/>
</linearGradient>
<linearGradient id="paint5_linear" x1="193.5" y1="125" x2="193.5" y2="226" gradientUnits="userSpaceOnUse">
<stop stop-color="#5680E9"/>
<stop offset="1" stop-color="#8860D0"/>
</linearGradient>
<linearGradient id="paint6_linear" x1="193.5" y1="125" x2="193.5" y2="226" gradientUnits="userSpaceOnUse">
<stop stop-color="#5680E9"/>
<stop offset="1" stop-color="#8860D0"/>
</linearGradient>
<linearGradient id="paint7_linear" x1="193.5" y1="125" x2="193.5" y2="226" gradientUnits="userSpaceOnUse">
<stop stop-color="#5680E9"/>
<stop offset="1" stop-color="#8860D0"/>
</linearGradient>
</defs>
</svg>
