<svg width="215" height="214" viewBox="0 0 215 214" fill="none" xmlns="http://www.w3.org/2000/svg">
<path d="M68.4124 2.13414C69.1947 -0.459512 72.742 -0.769859 73.9628 1.64855L97.4724 48.2232C97.8663 49.0035 98.5808 49.5732 99.4292 49.7834L152.421 62.9098C155.195 63.5969 155.528 67.4059 152.915 68.5643L103.008 90.6932C102.209 91.0475 101.605 91.7326 101.352 92.5694L86.2873 142.519C85.5051 145.113 81.9577 145.423 80.737 143.005L57.2273 96.4298C56.8335 95.6496 56.1189 95.0799 55.2705 94.8697L2.27916 81.7432C-0.49478 81.0561 -0.828019 77.2471 1.78446 76.0888L51.6913 53.9599C52.4904 53.6056 53.0951 52.9205 53.3475 52.0836L68.4124 2.13414Z" fill="url(#paint0_linear)"/>
<path d="M194.296 69.6337C196.101 67.6108 199.45 68.8299 199.533 71.5398L200.016 87.4134C200.042 88.2872 200.449 89.1058 201.129 89.6553L213.661 99.785C215.882 101.58 214.575 105.17 211.72 105.118L195.608 104.822C194.734 104.806 193.897 105.172 193.315 105.824L182.742 117.674C180.937 119.697 177.587 118.477 177.505 115.767L177.022 99.8938C176.995 99.0201 176.589 98.2015 175.909 97.652L163.377 87.5223C161.156 85.727 162.462 82.1373 165.318 82.1897L181.429 82.4853C182.303 82.5013 183.141 82.1353 183.723 81.4831L194.296 69.6337Z" fill="url(#paint1_linear)"/>
<path d="M13.4395 152.074C11.0515 150.79 8.32088 153.082 9.17023 155.656L17.3562 180.47C17.63 181.3 17.5282 182.209 17.0773 182.958L3.17042 206.056C1.69736 208.502 4.15288 211.429 6.81815 210.403L31.9804 200.718C32.7962 200.404 33.7083 200.462 34.4783 200.876L57.494 213.246C59.882 214.53 62.6126 212.238 61.7632 209.664L53.5773 184.85C53.3035 184.02 53.4053 183.111 53.8562 182.362L67.7631 159.264C69.2361 156.818 66.7806 153.891 64.1153 154.917L38.9531 164.602C38.1373 164.916 37.2252 164.858 36.4552 164.444L13.4395 152.074Z" fill="url(#paint2_linear)"/>
<defs>
<linearGradient id="paint0_linear" x1="107.391" y1="0" x2="107.391" y2="213.614" gradientUnits="userSpaceOnUse">
<stop stop-color="#5AB9EA"/>
<stop offset="1" stop-color="#90DCF4"/>
</linearGradient>
<linearGradient id="paint1_linear" x1="107.391" y1="0" x2="107.391" y2="213.614" gradientUnits="userSpaceOnUse">
<stop stop-color="#5AB9EA"/>
<stop offset="1" stop-color="#90DCF4"/>
</linearGradient>
<linearGradient id="paint2_linear" x1="107.391" y1="0" x2="107.391" y2="213.614" gradientUnits="userSpaceOnUse">
<stop stop-color="#5AB9EA"/>
<stop offset="1" stop-color="#90DCF4"/>
</linearGradient>
</defs>
</svg>
