<svg width="688" height="80" viewBox="0 0 688 80" fill="none" xmlns="http://www.w3.org/2000/svg"> 
<path d="M150.75 13.5995L151.206 14.1928C153.486 13.1432 155.173 11.911 156.313 10.3594C157.544 9.17285 158.137 7.62122 158.137 6.25214C158.137 4.5636 157.408 3.05762 155.72 1.36908L154.216 0L149.656 4.74615L150.887 5.97832C152.118 7.07359 152.711 8.26013 152.711 9.4923C152.711 10.8614 152.118 12.2305 150.75 13.5995Z" fill="white" fill-opacity="0.56"/>
<path fill-rule="evenodd" clip-rule="evenodd" d="M93.4323 31.1238C96.6242 34.3183 100.728 36.0068 105.607 36.0068C110.486 36.0068 114.636 34.5009 117.828 30.9869C121.02 27.7924 122.661 23.822 122.661 19.0759C122.661 14.3297 121.156 10.3594 117.782 7.16486C114.59 3.9247 110.486 2.41871 105.607 2.41871C100.728 2.41871 96.6242 4.10724 93.4323 7.30177C90.2404 10.4963 88.5532 14.4666 88.5532 19.2128C88.5532 23.9589 90.2404 27.9293 93.4323 31.1238ZM112.447 26.3776C110.623 28.3856 108.343 29.2983 105.607 29.2983C102.871 29.2983 100.591 28.3856 98.7674 26.2407C96.9434 24.4153 96.0314 21.9509 96.0314 19.2128C96.0314 16.4746 96.9434 14.0103 98.7674 12.1848C100.591 10.1768 102.871 9.26412 105.607 9.26412C108.343 9.26412 110.623 10.3594 112.447 12.1848C114.271 14.0103 115.183 16.2921 115.183 19.2128C115.183 22.0878 114.271 24.5522 112.447 26.3776Z" fill="white" fill-opacity="0.56"/>
<path fill-rule="evenodd" clip-rule="evenodd" d="M57.3179 29.6178L59.2786 35.4136H67.532L55.3571 3.24016H47.7421L35.8408 35.4136H44.0486L45.8726 29.6178H57.3179ZM48.1525 23.2287L51.6636 12.2305L55.1747 23.2287H48.1525Z" fill="white" fill-opacity="0.56"/>
<path d="M25.3074 15.6075V35.5505H32.9224V3.42271H25.3074L16.3244 15.6075L7.15904 3.37707H0V35.5505H7.61502V15.6075L16.3244 26.8796L25.3074 15.6075Z" fill="white" fill-opacity="0.56"/>
<path d="M80.163 22.4529V35.4136H72.548V22.4529L61.5586 3.37707H70.268L76.3783 15.2881L82.6253 3.37707H91.1523L80.163 22.4529Z" fill="white" fill-opacity="0.56"/>
<path fill-rule="evenodd" clip-rule="evenodd" d="M143.728 35.4136L135.794 23.2288H134.289V35.4136H126.674V3.37707H137.618C141.266 3.37707 144.002 4.28979 146.008 5.97833C148.014 7.66686 148.926 10.0856 148.926 13.1432C148.926 15.1055 148.47 16.9766 147.421 18.3457C146.373 19.8517 145.005 20.9469 142.998 21.7228L152.164 35.4592H143.728V35.4136ZM134.426 9.4923V16.931H137.025C138.393 16.931 139.442 16.6115 140.399 15.8813C141.174 15.1055 141.63 14.1928 141.63 13.1432C141.63 12.0936 141.174 11.3177 140.399 10.5419C139.624 9.76612 138.575 9.4923 137.344 9.4923H134.426Z" fill="white" fill-opacity="0.56"/>
<path d="M158.183 29.1614L163.837 25.7844C164.886 28.3856 166.755 29.7547 169.172 29.7547C170.54 29.7547 171.452 29.4353 172.227 28.842C173.002 28.2487 173.458 27.4729 173.458 26.5602C173.458 25.7844 173.139 25.0542 172.547 24.4153C171.954 23.822 170.267 22.9093 167.667 21.6771C164.612 20.308 162.469 18.939 161.284 17.3873C160.235 15.8813 159.596 14.1928 159.596 12.0479C159.596 9.44666 160.645 7.30177 162.652 5.47632C164.658 3.65088 167.211 2.87507 170.267 2.87507C174.69 2.87507 178.018 4.5636 180.025 8.07758L174.826 11.4546C173.914 9.76611 172.41 8.85339 170.403 8.85339C169.355 8.85339 168.579 9.17284 167.987 9.62921C167.394 10.0856 167.075 10.8614 167.075 11.5916C167.075 12.3217 167.394 13.0975 167.987 13.5539C168.579 14.1472 170.13 14.923 172.273 15.9726C175.465 17.4786 177.745 19.0302 179.113 20.5362C180.481 22.0422 181.073 24.0502 181.073 26.332C181.073 29.2527 179.842 31.5345 177.562 33.36C175.282 35.1854 172.364 36.0981 169.035 36.0981C164.156 36.0068 160.508 33.725 158.183 29.1614Z" fill="white" fill-opacity="0.56"/>
<path d="M213.403 14.9686H203.326V9.44666H216.002V3.05762H195.711V35.2767H203.326V21.5402H213.403V14.9686Z" fill="white" fill-opacity="0.56"/>
<path d="M249.29 20.1711C249.29 23.2288 248.97 25.6475 248.241 27.336C247.648 29.0245 246.554 30.5305 245.322 31.7627C244.091 33.1318 242.586 34.0445 240.763 34.6834C238.939 35.2767 236.795 35.5961 234.379 35.5961C232.099 35.5961 230.092 35.2767 228.451 34.6834C226.764 34.0901 225.259 32.9949 223.891 31.6258C222.66 30.2567 221.748 28.7051 220.973 27.0622C220.38 25.3736 220.061 22.9549 220.061 20.0342V3.05762H227.676V19.9886C227.676 23.0462 228.268 25.1911 229.5 26.6971C230.731 28.2031 232.418 28.9789 234.698 28.9789C239.44 28.9789 241.72 25.9213 241.72 19.9886V3.05762H249.335L249.29 20.1711Z" fill="white" fill-opacity="0.56"/>
<path d="M260.963 15.2424L275.144 35.0941L275.19 35.231H282.942V3.05762H275.327V23.2288L260.963 3.05762H253.348V35.231H260.963V15.2424Z" fill="white" fill-opacity="0.56"/>
<path fill-rule="evenodd" clip-rule="evenodd" d="M287 3.05762H297.351C302.823 3.05762 307.246 4.4267 310.438 7.34741C313.63 10.2681 315.317 14.0559 315.317 18.939C315.317 24.1415 313.63 28.1118 310.438 30.9869C307.246 33.9076 302.686 35.2767 296.895 35.2767H287V3.05762ZM294.478 9.30975V28.9789H296.621C300.132 28.9789 302.868 28.0662 304.829 26.3776C306.79 24.6891 307.747 22.2704 307.747 19.2128C307.747 16.0183 306.699 13.5539 304.829 11.911C302.868 10.2225 300.087 9.30975 296.621 9.30975H294.478Z" fill="white" fill-opacity="0.56"/>
<path d="M7.70623 58.9161V53.3485H20.4739V46.9139H0V79.4067H7.70623V65.5334H17.8748V58.9161H7.70623Z" fill="white" fill-opacity="0.56"/>
<path fill-rule="evenodd" clip-rule="evenodd" d="M44.0942 80C39.1695 80 35.02 78.3115 31.7825 75.0713C28.545 71.8311 26.8578 67.8152 26.8578 63.069C26.8578 58.2772 28.545 54.3069 31.7825 51.0667C35.02 47.8266 39.1695 46.138 44.0942 46.138C49.0189 46.138 53.1684 47.6897 56.4059 50.9298C59.7802 54.17 61.3306 58.186 61.3306 62.9321C61.3306 67.7239 59.6434 71.6942 56.4059 74.9344C53.1684 78.3115 49.0189 80 44.0942 80ZM44.0942 73.0633C46.8757 73.0633 49.1557 72.1506 51.0252 70.1426C52.8948 68.2715 53.8068 65.8072 53.8068 62.8865C53.8068 59.9658 52.8948 57.6383 51.0252 55.8129C49.1557 53.9874 46.8757 52.8922 44.0942 52.8922C41.3127 52.8922 39.0327 53.8049 37.1631 55.8129C35.2936 57.684 34.3816 60.1483 34.3816 62.8865C34.3816 65.6703 35.2936 68.1346 37.1631 69.9601C39.1695 72.1506 41.495 73.0633 44.0942 73.0633Z" fill="white" fill-opacity="0.56"/>
<path fill-rule="evenodd" clip-rule="evenodd" d="M76.971 67.0394L84.9509 79.4067L93.4323 79.2242L84.1757 65.3508C86.182 64.575 87.55 63.5254 88.6444 61.9738C89.7388 60.559 90.1947 58.7336 90.1947 56.7256C90.1947 53.6224 89.2828 51.158 87.2764 49.4695C85.2701 47.7809 82.4885 46.8682 78.795 46.8682H67.7145V79.3611H75.4207V67.0394H76.971ZM75.4207 60.6047V52.8922L78.2934 53.0291C79.5246 53.0291 80.619 53.3485 81.3941 54.1244C82.1693 54.8545 82.6253 55.6303 82.6253 56.7256C82.6253 57.8209 82.1693 58.7336 81.3941 59.5094C80.4822 60.2852 79.3878 60.6047 78.0198 60.6047H75.4207Z" fill="white" fill-opacity="0.56"/>
<path d="M109.848 79.4067V46.9139H117.554V72.6526H130.003V79.4521C129.957 79.4067 109.848 79.4067 109.848 79.4067Z" fill="white" fill-opacity="0.56"/>
<path fill-rule="evenodd" clip-rule="evenodd" d="M138.21 75.0713C141.448 78.3115 145.597 80 150.522 80C155.447 80 159.596 78.3115 162.834 74.9344C166.071 71.6942 167.759 67.7239 167.759 62.9321C167.759 58.186 166.208 54.17 162.834 50.9298C159.596 47.6897 155.447 46.138 150.522 46.138C145.597 46.138 141.448 47.8266 138.21 51.0667C134.973 54.3069 133.286 58.2772 133.286 63.069C133.286 67.8152 134.973 71.8311 138.21 75.0713ZM157.453 70.1426C155.584 72.1506 153.304 73.0633 150.522 73.0633C147.741 73.0633 145.461 72.1506 143.591 69.9601C141.722 68.1346 140.81 65.6703 140.81 62.8865C140.81 60.1483 141.722 57.684 143.591 55.8129C145.461 53.8049 147.741 52.8922 150.522 52.8922C153.304 52.8922 155.584 53.9418 157.453 55.8129C159.323 57.6383 160.235 59.9658 160.235 62.8865C160.235 65.8072 159.323 68.2715 157.453 70.1426Z" fill="white" fill-opacity="0.56"/>
<path d="M196.076 79.4067L181.757 59.2356V79.4067H174.051V46.9139H181.757L196.212 67.2675V46.9139H203.919V79.4067H196.076Z" fill="white" fill-opacity="0.56"/>
<path fill-rule="evenodd" clip-rule="evenodd" d="M210.211 46.9139V79.498H220.197C226.08 79.498 230.685 78.0833 233.923 75.1626C237.16 72.2419 238.847 68.2259 238.847 62.9777C238.847 58.0491 237.16 54.17 233.923 51.2493C230.685 48.2829 226.262 46.9139 220.699 46.9139H210.211ZM217.917 73.1089V53.2116C217.917 53.2116 220.061 53.2116 220.061 53.2573C223.572 53.2573 226.353 54.17 228.36 55.8585C230.184 57.5471 231.278 60.0114 231.278 63.2516C231.278 66.3548 230.366 68.8192 228.36 70.5077C226.353 72.1962 223.617 73.1089 220.061 73.1089H217.917Z" fill="white" fill-opacity="0.56"/>
<path fill-rule="evenodd" clip-rule="evenodd" d="M259.367 80C254.442 80 250.293 78.3115 247.055 75.0713C243.818 71.8311 242.13 67.8152 242.13 63.069C242.13 58.2772 243.818 54.3069 247.055 51.0667C250.293 47.8266 254.442 46.138 259.367 46.138C264.292 46.138 268.441 47.6897 271.679 50.9298C275.053 54.17 276.603 58.186 276.603 62.9321C276.603 67.7239 274.916 71.6942 271.679 74.9344C268.441 78.3115 264.292 80 259.367 80ZM259.367 73.0633C262.148 73.0633 264.428 72.1506 266.298 70.1426C268.167 68.2715 269.079 65.8072 269.079 62.8865C269.079 59.9658 268.167 57.6383 266.298 55.8129C264.428 53.9418 262.148 52.8922 259.367 52.8922C256.585 52.8922 254.305 53.8049 252.436 55.8129C250.566 57.684 249.654 60.1483 249.654 62.8865C249.654 65.6703 250.566 68.1346 252.436 69.9601C254.442 72.1506 256.722 73.0633 259.367 73.0633Z" fill="white" fill-opacity="0.56"/>
<path d="M289.052 59.2356L303.37 79.4067H311.213V46.9139H303.507V67.2675L289.052 46.9139H281.346V79.4067H289.052V59.2356Z" fill="white" fill-opacity="0.56"/>
<path d="M375.035 20.5059C376.11 19.4266 377.32 18.7521 378.664 18.7521C381.083 18.7521 381.89 20.9106 381.89 24.688C381.89 28.7352 380.815 30.6239 378.261 30.6239C377.051 30.6239 375.976 30.0843 375.035 29.14V20.5059Z" fill="white" fill-opacity="0.56"/>
<path d="M393.315 22.9342C393.315 20.1012 394.39 18.4823 396.541 18.4823C398.423 18.4823 399.633 20.1012 399.633 22.9342H393.315Z" fill="white" fill-opacity="0.56"/>
<path d="M435.521 25.0927C431.758 25.0927 430.682 26.172 430.682 28.3305C430.682 29.9494 431.623 31.0287 433.102 31.0287C434.312 31.0287 435.387 30.3541 436.193 29.2749L436.328 25.2277C436.193 25.0927 435.79 25.0927 435.521 25.0927Z" fill="white" fill-opacity="0.56"/>
<path d="M384.444 59.3592C384.444 56.5261 385.519 54.9072 387.67 54.9072C389.417 54.9072 390.627 56.5261 390.627 59.3592H384.444Z" fill="white" fill-opacity="0.56"/>
<path d="M413.612 56.9309C414.687 55.8516 415.897 55.1771 417.241 55.1771C419.66 55.1771 420.467 57.2007 420.467 61.113C420.467 65.1602 419.392 67.0489 416.838 67.0489C415.628 67.0489 414.553 66.5093 413.612 65.5649V56.9309Z" fill="white" fill-opacity="0.56"/>
<path d="M471.276 54.9072C469.125 54.9072 468.05 56.5261 468.05 59.3592H474.367C474.367 56.5261 473.157 54.9072 471.276 54.9072Z" fill="white" fill-opacity="0.56"/>
<path d="M512.81 61.5177C509.046 61.5177 507.971 62.597 507.971 64.7555C507.971 66.3744 508.912 67.4536 510.39 67.4536C511.6 67.4536 512.675 66.7791 513.482 65.6998V61.6526C513.482 61.5177 513.079 61.5177 512.81 61.5177Z" fill="white" fill-opacity="0.56"/>
<path d="M529.343 55.1771C527.73 55.1771 526.789 56.1214 526.117 56.9309V65.2951C526.923 66.1045 527.999 66.7791 529.343 66.7791C531.628 66.7791 532.703 65.0253 532.703 60.8432C532.569 57.7403 532.031 55.1771 529.343 55.1771Z" fill="white" fill-opacity="0.56"/>
<path fill-rule="evenodd" clip-rule="evenodd" d="M459.446 0H327.317C327.317 2.29342 327.317 80 327.451 80H545.203V34.1315H459.446V0ZM448.828 33.5919C445.065 33.5919 445.065 30.2192 445.065 28.7352V14.1653C445.065 11.8718 444.93 10.5228 444.662 9.17369L448.425 8.36425C448.694 9.44351 448.694 10.7926 448.694 13.086V27.656C448.694 29.9494 448.828 30.3541 449.097 30.7589C449.366 31.0287 449.904 31.2985 450.307 31.0287L450.979 33.3221C450.307 33.457 449.635 33.5919 448.828 33.5919ZM418.854 33.1872V16.3238L422.618 15.6492V33.1872H418.854ZM418.316 11.0624C418.316 12.4115 419.392 13.4907 420.736 13.4907C422.08 13.4907 423.29 12.4115 423.155 11.0624C423.155 9.57841 422.08 8.49915 420.736 8.49915C419.392 8.49915 418.316 9.71332 418.316 11.0624ZM339.146 9.71332H335.114V33.1872H339.146V9.71332ZM362.4 21.3153V33.1872H366.029V20.6408C366.029 17.1332 364.416 15.6492 361.593 15.6492C359.711 15.6492 358.098 16.4587 356.486 18.2125C355.276 16.1889 353.932 15.6492 352.453 15.6492C350.84 15.6492 349.227 16.4587 347.883 17.8078C347.749 16.8634 347.614 16.1889 347.211 15.6492L343.851 16.5936C344.254 17.5379 344.523 18.7521 344.523 20.9106V33.1872H348.152V20.5059C349.362 19.2917 350.571 18.7521 351.647 18.7521C353.125 18.7521 353.528 19.4266 353.528 21.4503V33.1872H357.023V20.7757C358.233 19.5616 359.443 18.7521 360.652 18.7521C361.997 18.7521 362.4 19.2917 362.4 21.3153ZM375.035 32.2428C376.244 33.0523 377.589 33.5919 379.067 33.5919C383.368 33.5919 385.788 29.9494 385.788 24.2833C385.788 18.2125 382.831 15.6492 379.336 15.6492C377.589 15.6492 375.841 16.3238 374.766 17.6729C374.766 16.5936 374.631 16.054 374.497 15.5143L371.137 16.1889C371.406 17.5379 371.54 18.3474 371.54 20.5059V40.6071L375.169 39.6627V33.9966C375.169 33.3113 375.098 32.7681 375.06 32.4701C375.045 32.3577 375.035 32.2798 375.035 32.2428ZM397.482 30.7589C394.256 30.7589 393.315 28.3305 393.315 25.9022V25.4975H403.531V24.688C403.531 20.7757 402.724 18.6172 401.246 17.2681C399.767 15.9191 398.288 15.5143 396.541 15.5143C394.39 15.5143 392.643 16.1889 391.299 17.8078C389.82 19.5616 389.148 21.5852 389.148 24.5531C389.148 30.0843 392.24 33.5919 397.079 33.5919C399.364 33.5919 401.514 32.7825 403.262 31.2985L401.783 29.0051C400.439 30.2192 399.095 30.7589 397.482 30.7589ZM415.256 19.2085C415.331 19.2354 415.409 19.2636 415.494 19.2917L416.434 15.7841C416.031 15.6492 415.628 15.5143 415.09 15.5143C413.477 15.5143 412.133 16.3238 410.789 18.2125C410.789 17.2681 410.52 16.3238 410.117 15.5143L406.757 16.4587C407.16 17.5379 407.429 18.887 407.429 21.0455V33.1872H411.192V21.5852C411.596 20.2361 412.805 19.0219 414.418 19.0219C414.737 19.0219 414.972 19.1064 415.256 19.2085ZM439.419 33.9966C438.344 33.5919 437.538 32.7825 437.134 31.7032C435.79 33.3221 434.312 33.8617 432.43 33.8617C428.532 33.8617 426.784 31.7032 426.784 28.7352C426.784 24.8229 429.741 22.7993 435.252 22.7993H436.328V21.855C436.328 19.8314 435.925 18.887 433.908 18.887C431.758 18.887 429.338 20.5059 428.801 20.9106L427.188 18.2125C429.741 16.5936 431.892 15.9191 434.446 15.9191C437.134 15.9191 438.882 16.8634 439.688 18.7521C439.957 19.5615 439.957 20.371 439.957 22.9342V27.7909C439.957 30.0843 440.091 30.8938 441.436 31.7032L439.419 33.9966ZM335.114 46.1383V69.6121H348.421V66.3744H339.146V58.9545H346.27V55.7167H339.146V49.3761H347.614L348.152 46.1383H335.114ZM361.324 58.2799V69.6121H364.954V56.7959C364.954 53.6931 363.206 52.0742 360.518 52.0742C358.636 52.0742 357.158 52.8836 355.276 54.5025C355.276 53.5582 355.007 52.8836 354.604 52.0742L351.243 53.0185C351.781 54.2327 351.915 55.312 351.915 57.0658V69.6121H355.545V57.2007C356.62 56.1214 358.233 55.312 359.308 55.312C360.787 55.312 361.324 55.9865 361.324 58.2799ZM370.465 65.5649C370.465 67.9932 371.54 70.0169 374.9 70.0169C376.11 70.0169 377.185 69.882 378.395 69.2074L377.857 66.914C377.185 67.1838 376.782 67.3187 376.244 67.3187C374.631 67.3187 374.094 66.7791 374.094 64.6206V55.0422H377.185L378.126 52.344H374.094C374.094 50.7251 374.228 48.5666 374.363 47.2175L370.599 48.1619C370.465 49.376 370.465 50.86 370.465 52.3439L368.583 52.344V54.9072H370.465V65.5649ZM388.476 67.1838C385.25 67.1838 384.309 64.7555 384.309 62.3271V61.9224H394.525V61.113C394.525 57.2007 393.718 55.0422 392.24 53.6931C390.761 52.344 389.283 51.9393 387.535 51.9393C385.385 51.9393 383.637 52.6138 382.293 54.2327C380.815 55.9865 380.142 58.0101 380.142 60.9781C380.142 66.5093 383.234 70.0169 388.073 70.0169C390.358 70.0169 392.509 69.2074 394.256 67.7234L392.777 65.43C391.433 66.6442 390.089 67.1838 388.476 67.1838ZM406.385 55.6334C406.46 55.6604 406.538 55.6885 406.622 55.7167L407.697 52.344C407.294 52.2091 406.891 52.0742 406.353 52.0742C404.74 52.0742 403.396 52.8836 402.052 54.7723C402.052 53.828 401.783 52.8836 401.38 52.0742L397.885 52.8836C398.288 53.9629 398.557 55.312 398.557 57.4705V69.6121H402.321V58.0101C402.724 56.661 403.934 55.4469 405.547 55.4469C405.866 55.4469 406.101 55.5313 406.385 55.6334ZM413.612 68.6678C414.821 69.4772 416.166 70.0169 417.644 70.0169C421.945 70.0169 424.499 66.3744 424.365 60.7083C424.365 54.6374 421.408 52.0742 417.913 52.0742C416.166 52.0742 414.418 52.7487 413.343 54.0978C413.343 53.0186 413.208 52.4789 413.074 51.9393L409.714 52.6138C409.983 53.9629 410.117 54.7723 410.117 56.9309V77.032L413.746 76.0877V70.4216C413.746 69.7365 413.675 69.193 413.636 68.8949L413.636 68.8938C413.622 68.7818 413.612 68.7046 413.612 68.6678ZM436.628 55.6335C436.703 55.6604 436.781 55.6886 436.865 55.7167L437.806 52.2091C437.403 52.0742 437 51.9393 436.462 51.9393C434.849 51.9393 433.505 52.7487 432.161 54.6374C432.161 53.6931 431.892 52.7487 431.489 51.9393L428.129 52.8836C428.532 53.9629 428.801 55.312 428.801 57.4705V69.6121H432.564V58.0101C432.967 56.6611 434.177 55.4469 435.79 55.4469C436.109 55.4469 436.344 55.5314 436.628 55.6335ZM440.091 52.7487V69.6121H443.855V52.0742L440.091 52.7487ZM441.973 49.9157C440.629 49.9157 439.554 48.8364 439.554 47.4873C439.554 46.1383 440.629 44.9241 441.973 44.9241C443.317 44.9241 444.393 46.0034 444.393 47.4873C444.527 48.8364 443.317 49.9157 441.973 49.9157ZM453.936 70.1518C451.785 70.1518 449.635 69.4772 447.35 68.2631L448.694 65.5649C450.173 66.5093 452.323 67.3187 454.205 67.3187C455.818 67.3187 457.028 66.3744 457.028 64.8904C457.028 63.5413 456.221 62.8668 454.205 62.4621L452.189 62.0573C449.635 61.5177 448.156 59.7639 448.156 57.3356C448.156 54.0978 450.71 51.9393 454.474 51.9393C456.759 51.9393 458.641 52.6138 460.119 53.4233L458.909 55.9865C457.297 55.1771 456.087 54.7723 454.743 54.7723C453.13 54.7723 452.189 55.7167 452.189 56.9309C452.189 58.0101 452.726 58.5497 454.474 58.9545L456.624 59.4941C460.119 60.4384 460.926 62.3271 460.926 64.2158C460.926 67.7234 458.103 70.1518 453.936 70.1518ZM468.05 62.3271C468.05 64.7555 468.991 67.1838 472.217 67.1838C473.83 67.1838 475.174 66.6442 476.518 65.43L477.996 67.7234C476.249 69.2074 474.098 70.0169 471.813 70.0169C466.974 70.0169 463.883 66.5093 463.883 60.9781C463.883 58.0101 464.555 55.9865 466.033 54.2327C467.378 52.6138 469.125 51.9393 471.276 51.9393C473.023 51.9393 474.502 52.344 475.98 53.6931C477.459 55.0422 478.265 57.2007 478.265 61.113V61.9224H468.05V62.3271ZM501.519 69.6121H489.556V46.1383H493.454V66.3744H502.191L501.519 69.6121ZM516.708 70.2867C515.632 69.8819 514.826 69.0725 514.423 67.9932C513.079 69.6121 511.6 70.1518 509.718 70.1518C505.82 70.1518 504.073 67.9932 504.073 65.0253C504.073 61.113 507.03 59.0894 512.541 59.0894H513.751V58.145C513.751 56.1214 513.347 55.1771 511.331 55.1771C509.181 55.1771 506.761 56.7959 506.223 57.2007L504.61 54.5025C507.164 52.8836 509.315 52.2091 511.869 52.2091C514.557 52.2091 516.305 53.1535 517.111 55.0422C517.38 55.8515 517.38 56.6609 517.38 59.2235V64.0809C517.38 66.3744 517.514 67.1838 518.858 67.9932L516.708 70.2867ZM530.015 70.0169C528.267 70.0169 526.923 69.3423 525.848 67.9932C525.714 68.9376 525.579 69.2074 525.31 69.6121H521.95C522.219 68.8027 522.353 68.1282 522.353 65.8347V49.6459C522.353 47.6223 522.219 46.4081 521.95 45.4637L525.848 44.6543C526.117 45.8684 526.117 46.678 526.117 48.027V52.0742C526.117 53.0186 526.117 53.5582 525.982 53.6931H526.117C527.327 52.4789 528.536 52.0742 530.149 52.0742C534.182 52.0742 536.87 55.4469 536.87 60.8432C536.87 66.2395 533.913 70.0169 530.015 70.0169Z" fill="white" fill-opacity="0.56"/>
<path d="M576.295 5.45709V12.4505C576.295 13.4427 576.567 13.7788 577.383 13.7788C578.023 13.7788 578.423 13.6827 578.919 13.4747L578.823 14.803C578.231 15.043 577.671 15.171 576.807 15.171C575.479 15.171 574.775 14.5149 574.775 12.7065V5.47309H573.446V4.19284H574.775V0.848169L576.295 0V4.17683H578.983V5.45709H576.295Z" fill="white" fill-opacity="0.56"/>
<path d="M569.637 1.15223C569.637 1.74434 570.134 2.22444 570.758 2.22444C571.318 2.22444 571.814 1.74434 571.814 1.15223C571.814 0.5281 571.334 0.0480042 570.758 0.0480042C570.118 0.0480042 569.637 0.544104 569.637 1.15223Z" fill="white" fill-opacity="0.56"/>
<path d="M569.958 4.17683V14.931H571.478V4.17683H569.958Z" fill="white" fill-opacity="0.56"/>
<path d="M563.028 15.155C559.507 15.155 557.203 11.9704 557.203 7.76155C557.203 3.53671 559.619 0.368073 563.092 0.368073C565.045 0.368073 566.501 1.10422 567.669 2.64053L566.373 3.63273C565.461 2.35247 564.612 1.80836 563.06 1.80836C560.58 1.80836 558.835 4.27285 558.835 7.71354C558.835 11.2342 560.644 13.7147 563.076 13.7147C564.612 13.7147 565.669 13.0266 566.581 11.8104L567.717 12.7706C566.645 14.1948 565.109 15.155 563.028 15.155Z" fill="white" fill-opacity="0.56"/>
<path d="M664.2 33.6547C673.85 33.6547 682.892 38.8238 687.789 46.1692H681.036C676.427 41.4323 670.362 38.8398 664.2 38.8398C657.927 38.8398 651.958 41.4323 647.349 46.1692H640.596C645.653 38.6797 654.695 33.6547 664.2 33.6547Z" fill="white" fill-opacity="0.56"/>
<path d="M669.033 74.6709C670.346 74.6709 671.802 74.1908 673.37 73.2306L673.722 73.0386L672.298 78.5597L672.234 78.5917C671.274 79.1678 669.673 79.952 667.033 79.904C663.128 79.84 660.52 76.8153 660.52 72.4145V56.2512H655.559V50.8582H660.52V45.017L666.281 41.9284V50.8422H672.25V56.2352H666.281V71.4383C666.281 73.6787 667.129 74.6709 669.033 74.6709Z" fill="white" fill-opacity="0.56"/>
<path d="M637.827 71.0222L637.699 71.1502C635.635 73.2627 633.234 74.3829 630.754 74.3829C625.585 74.3829 621.84 70.5101 621.84 65.165C621.84 59.82 625.585 55.9472 630.754 55.9472C633.234 55.9472 635.635 57.0674 637.699 59.1958L637.827 59.3239L641.156 55.3071L641.076 55.195C638.307 51.9304 634.995 50.3301 630.93 50.3301C626.833 50.3301 623.104 51.7063 620.4 54.1868C617.471 56.8754 615.935 60.6681 615.935 65.165C615.935 69.6459 617.471 73.4387 620.4 76.1432C623.104 78.6237 626.849 80 630.93 80C634.995 80 638.323 78.4157 641.076 75.135L641.156 75.023L637.827 71.0222Z" fill="white" fill-opacity="0.56"/>
<path d="M644.5 50.8102V79.4559H650.374V50.8102H644.5Z" fill="white" fill-opacity="0.56"/>
<path d="M678.235 50.8102V79.4559H684.092V50.8102H678.235Z" fill="white" fill-opacity="0.56"/>
<path d="M581.064 1.15223C581.064 1.74434 581.56 2.22444 582.184 2.22444C582.792 2.22444 583.288 1.74434 583.288 1.15223C583.288 0.5281 582.792 0.0480042 582.184 0.0480042C581.544 0.0480042 581.064 0.544104 581.064 1.15223Z" fill="white" fill-opacity="0.56"/>
<path d="M581.4 4.17683V14.931H582.968V4.17683H581.4Z" fill="white" fill-opacity="0.56"/>
<path d="M592.218 2.01641V6.76936H596.171V8.25766H592.218V14.931H590.634V0.576124H599.067V2.01641H592.218Z" fill="white" fill-opacity="0.56"/>
<path fill-rule="evenodd" clip-rule="evenodd" d="M598.795 9.56992C598.795 13.2186 600.796 15.155 603.436 15.155C606.029 15.155 608.141 13.1386 608.141 9.4899C608.141 5.84117 606.109 3.9688 603.516 3.9688C600.86 3.9688 598.795 5.90518 598.795 9.56992ZM600.348 9.52191C600.348 6.68934 601.58 5.28106 603.468 5.28106C605.325 5.28106 606.589 6.67334 606.573 9.52191C606.573 12.3225 605.325 13.8268 603.468 13.8268C601.58 13.8268 600.348 12.3225 600.348 9.52191Z" fill="white" fill-opacity="0.56"/>
<path d="M616.991 14.931V13.6347C616.367 14.5309 615.359 15.155 614.03 15.155C611.742 15.155 610.254 13.8268 610.254 10.7221V4.17683H611.774V10.4501C611.774 12.7545 612.622 13.8268 614.334 13.8268C615.823 13.8268 616.991 12.8346 616.991 10.4501V4.17683H618.527V14.931H616.991Z" fill="white" fill-opacity="0.56"/>
<path d="M628.017 8.65773V14.931H629.537V8.38568C629.537 5.28106 628.065 3.95279 625.761 3.95279C624.416 3.95279 623.424 4.57691 622.816 5.47309V4.17683H621.248V14.931H622.816V8.65773C622.816 6.27325 623.968 5.28106 625.457 5.28106C627.201 5.28106 628.017 6.32126 628.017 8.65773Z" fill="white" fill-opacity="0.56"/>
<path fill-rule="evenodd" clip-rule="evenodd" d="M638.739 14.931V13.6347C637.987 14.4509 636.979 15.155 635.491 15.155C633.362 15.155 631.634 13.5387 631.634 9.72995C631.634 5.90518 633.458 3.95279 635.699 3.95279C637.075 3.95279 637.987 4.52891 638.755 5.37708V0.848169L640.276 0V14.931H638.739ZM638.739 6.88138C638.147 5.9852 637.107 5.28106 635.811 5.28106C634.034 5.28106 633.17 6.80136 633.17 9.71394C633.17 12.4025 634.178 13.8428 635.875 13.8428C637.059 13.8428 637.987 13.2346 638.739 12.2585V6.88138Z" fill="white" fill-opacity="0.56"/>
<path fill-rule="evenodd" clip-rule="evenodd" d="M649.189 13.6347V14.963H650.71V7.44149C650.71 4.961 649.253 3.9848 646.965 3.9848C645.589 3.9848 644.308 4.32087 643.332 4.83297L643.876 6.06522C644.837 5.55312 645.749 5.24905 646.869 5.24905C648.437 5.24905 649.189 6.01721 649.189 7.60153V8.89778C648.565 8.56172 647.605 8.28966 646.533 8.28966C644.404 8.28966 642.404 9.29787 642.404 11.6983C642.404 14.3229 644.148 15.155 645.861 15.155C647.381 15.155 648.437 14.4509 649.189 13.6347ZM646.453 9.50591C647.749 9.50591 648.501 9.72995 649.189 10.114H649.205V12.2745C648.549 13.2187 647.509 13.9228 646.133 13.9228C644.837 13.9228 643.876 13.2347 643.876 11.6023C643.876 10.2581 644.885 9.50591 646.453 9.50591Z" fill="white" fill-opacity="0.56"/>
<path d="M655.319 5.45709V12.4505C655.319 13.4427 655.591 13.7788 656.391 13.7788C656.999 13.7788 657.399 13.6827 657.895 13.4747L657.799 14.803C657.207 15.043 656.647 15.171 655.831 15.171C654.518 15.171 653.798 14.5149 653.798 12.7065V5.47309H652.47V4.19284H653.798V0.848169L655.319 0V4.17683H657.959V5.45709H655.319Z" fill="white" fill-opacity="0.56"/>
<path d="M660.216 1.15223C660.216 1.74434 660.712 2.22444 661.336 2.22444C661.896 2.22444 662.392 1.74434 662.392 1.15223C662.392 0.5281 661.912 0.0480042 661.336 0.0480042C660.712 0.0480042 660.216 0.544104 660.216 1.15223Z" fill="white" fill-opacity="0.56"/>
<path d="M660.536 4.17683V14.931H662.056V4.17683H660.536Z" fill="white" fill-opacity="0.56"/>
<path fill-rule="evenodd" clip-rule="evenodd" d="M668.905 15.155C666.313 15.155 664.312 13.2186 664.312 9.56992C664.312 5.90518 666.377 3.9688 668.985 3.9688C671.594 3.9688 673.578 5.84117 673.578 9.4899C673.578 13.1386 671.498 15.155 668.905 15.155ZM668.953 5.28106C667.113 5.28106 665.865 6.68934 665.865 9.52191C665.865 12.3225 667.113 13.8268 668.953 13.8268C670.81 13.8268 672.058 12.3225 672.058 9.52191C672.058 6.67334 670.794 5.28106 668.953 5.28106Z" fill="white" fill-opacity="0.56"/>
<path d="M682.572 8.65773V14.931H684.092V8.38568C684.092 5.28106 682.62 3.95279 680.364 3.95279C678.971 3.95279 677.851 4.57691 677.243 5.47309V4.17683H675.723V14.931H677.243V8.65773C677.243 6.27325 678.411 5.28106 680.06 5.28106C681.756 5.28106 682.572 6.32126 682.572 8.65773Z" fill="white" fill-opacity="0.56"/>
</svg>
