<svg width="687" height="90" viewBox="0 0 687 90" fill="none" xmlns="http://www.w3.org/2000/svg"> 
<path d="M21.2378 2.6736C21.4716 3.5091 22.0727 5.44746 22.6737 7.38582L20.3696 4.8459L20.6034 11.1289C20.4698 11.1289 20.3696 11.1289 20.2361 11.1289L17.0971 4.94616V4.81248V4.94616L14.0584 11.2291C13.9248 11.2291 13.8246 11.2291 13.8246 11.2291L14.0584 4.94616L11.2868 7.8537C11.8879 5.78166 12.6225 3.74304 12.8563 2.77386C7.17947 6.41664 3.17233 17.0776 3.17233 29.6435C3.17233 45.1504 9.35 57.7497 17.0971 57.7497C24.8443 57.7497 31.0553 45.1504 31.0553 29.6769C31.0553 16.9439 26.9146 6.1827 21.2378 2.6736Z" fill="#E2A025"/>
<path d="M30.9218 23.2603C30.9218 23.2603 26.6809 26.9031 24.143 33.42C23.542 34.9907 22.9409 36.7954 22.5736 38.7337L17.1305 23.2603L11.6875 38.7337C11.3202 36.7954 10.7191 34.9907 10.118 33.42C7.44661 26.8697 3.20572 23.2603 3.20572 23.2603C1.13537 56.6803 16.7632 58.251 16.997 58.3847C17.3643 58.251 32.8586 56.5466 30.9218 23.2603Z" fill="#0D8D45"/>
<path d="M17.1305 56.4129H12.8896C12.8896 56.4129 14.3255 59.1868 17.1305 59.1868C19.9355 59.1868 21.3714 56.4129 21.3714 56.4129H17.1305Z" fill="#0D8D45"/>
<path d="M24.2766 53.873C24.2766 53.873 19.4346 58.7189 20.0357 64.9016C16.9969 55.945 18.4662 54.3743 18.4662 54.3743L24.2766 53.873Z" fill="#0D8D45"/>
<path d="M11.3202 55.2098C11.3202 55.2098 16.0285 59.3205 16.5294 64.7679C17.9653 55.4437 16.0285 54.1404 16.0285 54.1404L11.3202 55.2098Z" fill="#0D8D45"/>
<path d="M20.0357 63.1972C20.0357 63.1972 20.0357 64.7679 20.2694 65.6034C19.5348 64.2666 19.4346 63.2974 19.4346 63.2974L20.0357 63.1972Z" fill="#0D8D45"/>
<path d="M15.5611 61.3925C15.6946 61.7601 16.1621 63.3309 16.2957 64.3C16.4293 62.5956 16.2957 62.4954 16.2957 62.4954C16.2957 62.4954 15.4275 61.0249 15.5611 61.3925Z" fill="#0D8D45"/>
<path d="M20.5032 60.2896C20.3696 60.7575 20.2694 61.3925 20.2694 61.9941C20.2694 63.7987 20.7369 65.2692 21.2378 66.1047C20.403 64.3 19.6684 62.5956 18.8336 60.7909L20.5032 60.2896Z" fill="#0D8D45"/>
<path d="M11.7877 55.8114C12.3887 56.4129 12.9898 57.1482 13.7244 58.2176C14.6928 59.6547 15.1603 60.9915 15.4275 62.0943C15.561 61.3591 15.561 60.156 15.0602 58.8192C14.8264 58.2176 14.5927 57.7163 14.3255 57.3821C13.4907 56.9142 12.6559 56.4129 11.7877 55.8114Z" fill="#0D8D45"/>
<path d="M61.6766 35.3249V20.8207L55.0982 29.0754L48.7202 20.8207V35.4252H43.1436V11.8641H48.3862L55.0982 20.8207L61.6766 11.8975H67.2532V35.4252H61.6766V35.3249Z" fill="#4E4E50"/>
<path d="M86.5542 35.3249L85.1183 31.0806H76.7367L75.401 35.3249H69.3903L78.1058 11.7638H83.6824L92.5983 35.3249H86.5542ZM80.9776 18.3476L78.4064 26.4018H83.5489L80.9776 18.3476Z" fill="#4E4E50"/>
<path d="M101.848 25.8337V35.3249H96.2715V25.8337L88.2239 11.8641H94.6019L99.0765 20.5867L103.651 11.8641H109.896L101.848 25.8337Z" fill="#4E4E50"/>
<path d="M120.481 35.7594C116.908 35.7594 113.903 34.5228 111.565 32.1834C109.228 29.844 107.992 26.9365 107.992 23.4608C107.992 19.9852 109.228 17.0776 111.565 14.7382C113.903 12.3988 116.908 11.1623 120.481 11.1623C124.054 11.1623 127.06 12.2651 129.397 14.638C131.868 16.9774 132.97 19.8849 132.97 23.3606C132.97 26.8362 131.768 29.7438 129.431 32.0832C127.093 34.6565 124.054 35.7594 120.481 35.7594ZM120.481 30.8466C122.485 30.8466 124.155 30.1782 125.49 28.7078C126.826 27.371 127.494 25.5663 127.494 23.4608C127.494 21.322 126.826 19.651 125.49 18.3142C124.155 16.9774 122.485 16.1753 120.481 16.1753C118.478 16.1753 116.808 16.8437 115.472 18.3142C114.137 19.651 113.469 21.4556 113.469 23.4608C113.469 25.466 114.137 27.2707 115.472 28.6075C116.808 30.1782 118.478 30.8466 120.481 30.8466Z" fill="#4E4E50"/>
<path d="M148.398 35.3249L142.587 26.4018H141.485V35.3249H135.909V11.8641H143.923C146.595 11.8641 148.598 12.5325 150.067 13.769C151.537 15.0056 152.205 16.7768 152.205 19.016C152.205 20.453 151.871 21.8233 151.103 22.8259C150.335 23.9287 149.333 24.7308 147.863 25.2989L154.575 35.3584H148.398V35.3249ZM141.586 16.2087V21.7898H143.489C144.491 21.7898 145.259 21.5559 145.96 21.0212C146.528 20.453 146.862 19.7846 146.862 19.016C146.862 18.2473 146.528 17.6792 145.96 17.111C145.392 16.5429 144.624 16.3424 143.723 16.3424H141.586V16.2087Z" fill="#4E4E50"/>
<path d="M153.874 19.7846L153.54 19.3502C154.542 18.3476 154.976 17.345 154.976 16.3424C154.976 15.44 154.542 14.5711 153.64 13.769L152.739 12.8667L156.078 9.39102L157.18 10.3936C158.416 11.6302 158.95 12.733 158.95 13.9696C158.95 14.9722 158.516 16.1084 157.614 16.9774C156.779 18.1136 155.544 19.016 153.874 19.7846Z" fill="#4E4E50"/>
<path d="M158.983 30.7464L163.124 28.2733C163.892 30.1782 165.261 31.1808 167.031 31.1808C168.033 31.1808 168.701 30.9469 169.268 30.5124C169.836 30.078 170.17 29.5098 170.17 28.8414C170.17 28.2733 169.936 27.7386 169.502 27.2707C169.068 26.8362 167.832 26.1678 165.929 25.2655C163.692 24.2629 162.122 23.2603 161.254 22.124C160.486 21.0212 160.018 19.7846 160.018 18.2139C160.018 16.309 160.786 14.7382 162.256 13.4014C163.725 12.0646 165.595 11.4965 167.832 11.4965C171.071 11.4965 173.509 12.733 174.978 15.3064L171.172 17.7794C170.504 16.5429 169.402 15.8745 167.933 15.8745C167.164 15.8745 166.597 16.1084 166.163 16.4426C165.729 16.7768 165.495 17.345 165.495 17.8797C165.495 18.4144 165.729 18.9826 166.163 19.3168C166.597 19.7512 167.732 20.3194 169.302 21.088C171.639 22.1909 173.309 23.3271 174.311 24.43C175.312 25.5329 175.746 27.0033 175.746 28.6743C175.746 30.8132 174.845 32.4842 173.175 33.821C171.506 35.1578 169.368 35.8262 166.931 35.8262C163.358 35.7594 160.686 34.0884 158.983 30.7464Z" fill="#4E4E50"/>
<path d="M192.042 16.3424V20.3528H199.422V25.1653H192.042V35.2247H186.466V11.6302H201.325V16.309H192.042V16.3424Z" fill="#4E4E50"/>
<path d="M225.702 24.1627C225.702 26.4018 225.468 28.173 224.934 29.4096C224.5 30.6461 223.699 31.749 222.797 32.6513C221.895 33.6539 220.793 34.3223 219.458 34.7902C218.122 35.2247 216.552 35.4586 214.783 35.4586C213.113 35.4586 211.644 35.2247 210.442 34.7902C209.206 34.3557 208.104 33.5537 207.102 32.5511C206.201 31.5485 205.533 30.4122 204.965 29.2091C204.531 27.9725 204.297 26.2013 204.297 24.0624V11.6302H209.874V24.029C209.874 26.2681 210.308 27.8388 211.21 28.9417C212.111 30.0446 213.347 30.6127 215.016 30.6127C218.489 30.6127 220.159 28.3736 220.159 24.029V11.6302H225.735L225.702 24.1627Z" fill="#4E4E50"/>
<path d="M244.636 35.091L234.251 20.5533V35.1912H228.674V11.6302H234.251L244.769 26.4018V11.6302H250.346V35.1912H244.669L244.636 35.091Z" fill="#4E4E50"/>
<path d="M253.318 35.091V11.6302H260.898C264.905 11.6302 268.144 12.6328 270.482 14.7716C272.819 16.9105 274.055 19.6844 274.055 23.2603C274.055 27.0702 272.819 29.9777 270.482 32.0832C268.144 34.2221 264.805 35.2247 260.564 35.2247H253.318V35.091ZM258.794 16.2087V30.6127H260.364C262.935 30.6127 264.939 29.9443 266.375 28.7078C267.81 27.4712 268.512 25.7 268.512 23.4608C268.512 21.1214 267.744 19.3168 266.375 18.1136C264.939 16.8771 262.902 16.2087 260.364 16.2087H258.794Z" fill="#4E4E50"/>
<path d="M48.7869 48.459V52.5362H56.2335V57.3821H48.7869V67.5418H43.1436V43.7467H58.1369V48.459H48.7869Z" fill="#4E4E50"/>
<path d="M75.4344 67.9762C71.828 67.9762 68.7892 66.7397 66.4183 64.3669C64.0475 61.9941 62.8119 59.0531 62.8119 55.5774C62.8119 52.0683 64.0475 49.1608 66.4183 46.788C68.7892 44.4152 71.828 43.1786 75.4344 43.1786C79.0408 43.1786 82.0796 44.3149 84.4505 46.6877C86.9215 49.0605 88.0569 52.0015 88.0569 55.4772C88.0569 58.9863 86.8213 61.8938 84.4505 64.2666C82.0796 66.7397 79.0408 67.9762 75.4344 67.9762ZM75.4344 62.8964C77.4714 62.8964 79.141 62.228 80.5101 60.7575C81.8792 59.3873 82.5471 57.5826 82.5471 55.4438C82.5471 53.3049 81.8792 51.6005 80.5101 50.2637C79.141 48.9269 77.4714 48.1248 75.4344 48.1248C73.3974 48.1248 71.7278 48.7932 70.3587 50.2637C68.9896 51.6339 68.3217 53.4386 68.3217 55.4438C68.3217 57.4824 68.9896 59.287 70.3587 60.6238C71.828 62.228 73.531 62.8964 75.4344 62.8964Z" fill="#4E4E50"/>
<path d="M105.354 67.5418L99.5106 58.485H98.3753V67.5084H92.7319V43.7133H100.846C103.551 43.7133 105.588 44.3817 107.057 45.6183C108.527 46.8548 109.195 48.6595 109.195 50.932C109.195 52.4025 108.861 53.7393 108.059 54.7753C107.258 55.9116 106.256 56.6803 104.787 57.2484L111.565 67.4081L105.354 67.5418ZM98.3753 48.1248V53.7727H100.279C101.28 53.7727 102.082 53.5388 102.75 52.9707C103.317 52.4025 103.651 51.7341 103.651 50.932C103.651 50.13 103.317 49.5618 102.75 49.0271C102.182 48.459 101.381 48.225 100.479 48.225L98.3753 48.1248Z" fill="#4E4E50"/>
<path d="M123.587 67.5418V43.7467H129.23V62.5956H138.346V67.5752C138.38 67.5418 123.587 67.5418 123.587 67.5418Z" fill="#929497"/>
<path d="M153.373 67.9762C149.767 67.9762 146.728 66.7397 144.357 64.3669C141.986 61.9941 140.751 59.0531 140.751 55.5774C140.751 52.0683 141.986 49.1608 144.357 46.788C146.728 44.4152 149.767 43.1786 153.373 43.1786C156.98 43.1786 160.018 44.3149 162.389 46.6877C164.86 49.0605 165.996 52.0015 165.996 55.4772C165.996 58.9863 164.76 61.8938 162.389 64.2666C160.018 66.7397 156.98 67.9762 153.373 67.9762ZM153.373 62.8964C155.41 62.8964 157.08 62.228 158.449 60.7575C159.818 59.3873 160.486 57.5826 160.486 55.4438C160.486 53.3049 159.818 51.6005 158.449 50.2637C157.08 48.8934 155.41 48.1248 153.373 48.1248C151.336 48.1248 149.667 48.7932 148.298 50.2637C146.928 51.6339 146.261 53.4386 146.261 55.4438C146.261 57.4824 146.928 59.287 148.298 60.6238C149.667 62.228 151.336 62.8964 153.373 62.8964Z" fill="#929497"/>
<path d="M186.733 67.5418L176.247 52.7701V67.5418H170.604V43.7467H176.247L186.833 58.6521V43.7467H192.476V67.5418C192.476 67.5418 186.733 67.5418 186.733 67.5418Z" fill="#929497"/>
<path d="M197.084 67.5418V43.7467H204.765C208.839 43.7467 212.078 44.7493 214.449 46.9216C216.82 49.0605 218.055 51.9012 218.055 55.5106C218.055 59.3539 216.82 62.2948 214.449 64.4337C212.078 66.5726 208.705 67.6086 204.397 67.6086H197.084V67.5418ZM202.728 48.3587V62.9298H204.297C206.902 62.9298 208.906 62.2614 210.375 61.0249C211.844 59.7883 212.512 57.9837 212.512 55.7111C212.512 53.3383 211.711 51.5336 210.375 50.2971C208.906 49.0605 206.869 48.3921 204.297 48.3921C204.297 48.3587 202.728 48.3587 202.728 48.3587Z" fill="#929497"/>
<path d="M233.082 67.9762C229.475 67.9762 226.437 66.7397 224.066 64.3669C221.695 61.9941 220.459 59.0531 220.459 55.5774C220.459 52.0683 221.695 49.1608 224.066 46.788C226.437 44.4152 229.475 43.1786 233.082 43.1786C236.688 43.1786 239.727 44.3149 242.098 46.6877C244.569 49.0605 245.704 52.0015 245.704 55.4772C245.704 58.9863 244.469 61.8938 242.098 64.2666C239.727 66.7397 236.688 67.9762 233.082 67.9762ZM233.082 62.8964C235.119 62.8964 236.788 62.228 238.158 60.7575C239.527 59.3873 240.195 57.5826 240.195 55.4438C240.195 53.3049 239.527 51.6005 238.158 50.2637C236.788 48.8934 235.119 48.1248 233.082 48.1248C231.045 48.1248 229.375 48.7932 228.006 50.2637C226.637 51.6339 225.969 53.4386 225.969 55.4438C225.969 57.4824 226.637 59.287 228.006 60.6238C229.475 62.228 231.145 62.8964 233.082 62.8964Z" fill="#929497"/>
<path d="M265.306 67.5418L254.821 52.7701V67.5418H249.177V43.7467H254.821L265.406 58.6521V43.7467H271.05V67.5418C271.05 67.5418 265.306 67.5418 265.306 67.5418Z" fill="#929497"/>
<path d="M18.7 54.8422C18.9337 60.156 20.403 65.5032 23.4084 69.8478C26.4471 74.1924 30.9217 77.4675 35.9975 79.6398C41.0732 81.8121 46.5162 83.0152 52.0928 83.8841C57.6694 84.6194 63.3462 84.8533 68.9228 84.8533C80.1761 84.7196 91.5631 83.6502 102.816 82.1797L119.747 79.8738C125.423 79.1385 131.134 78.4367 136.81 78.0691C159.551 76.866 182.425 76.2644 205.299 77.7015C228.173 79.1385 250.78 82.0461 273.42 84.4857L273.187 86.8919C250.546 84.352 227.939 81.5782 205.199 80.1077C182.458 78.7709 159.718 79.2722 136.944 80.5756C131.367 80.8095 125.691 81.5447 120.014 82.28L103.084 84.4523C91.6967 85.7891 80.3431 87.1259 68.856 87.2261C63.1792 87.3598 57.3689 87.0925 51.5585 86.3906C45.8817 85.6554 40.0714 84.586 34.6283 82.28C29.1853 80.1077 23.976 76.6989 20.236 71.7527C18.4328 69.3465 16.9635 66.5392 15.895 63.7653C14.9266 60.8578 14.3255 57.9503 13.9582 54.909L18.7 54.8422Z" fill="#0D8D45"/>
<path d="M275.958 85.9562C275.357 86.5577 274.122 86.9588 273.253 86.9588C272.886 86.9588 272.719 86.8919 272.352 86.8585L271.884 84.3855C272.986 84.5191 274.222 84.6194 275.324 84.7531C276.326 84.8533 276.459 85.3546 275.958 85.9562Z" fill="#0D8D45"/>
<g clip-path="url(#clip0)">
<path d="M288.081 0.600006H434.992V38.55H530.343V89.55H288.23C288.081 89.55 288.081 3.15001 288.081 0.600006Z" fill="#FDC300"/>
<path d="M301.233 11.4H296.75V37.5H301.233V11.4Z" fill="#001633"/>
<path d="M327.088 37.5V24.3C327.088 22.05 326.64 21.45 325.145 21.45C323.8 21.45 322.455 22.35 321.11 23.7V37.5H317.225V24.45C317.225 22.2 316.776 21.45 315.132 21.45C313.937 21.45 312.591 22.05 311.246 23.4V37.5H307.211V23.85C307.211 21.45 306.912 20.1 306.464 19.05L310.2 18C310.649 18.6 310.798 19.35 310.948 20.4C312.442 18.9 314.235 18 316.029 18C317.673 18 319.167 18.6 320.512 20.85C322.306 18.9 324.099 18 326.192 18C329.33 18 331.124 19.65 331.124 23.55V37.5H327.088Z" fill="#001633"/>
<path d="M345.172 21.45C343.678 21.45 342.332 22.2 341.137 23.4V33C342.183 34.05 343.379 34.65 344.724 34.65C347.563 34.65 348.759 32.55 348.759 28.05C348.759 23.85 347.862 21.45 345.172 21.45ZM345.62 37.95C343.976 37.95 342.482 37.35 341.137 36.45C341.137 36.6 341.286 37.35 341.286 38.4V44.7L337.251 45.75V23.4C337.251 21 337.102 20.1 336.803 18.6L340.539 17.85C340.689 18.45 340.838 19.05 340.838 20.25C342.034 18.75 343.976 18 345.919 18C349.805 18 353.093 20.85 353.093 27.6C353.093 33.9 350.403 37.95 345.62 37.95Z" fill="#001633"/>
<path d="M365.049 21.15C362.658 21.15 361.462 22.95 361.462 26.1H368.487C368.487 22.95 367.142 21.15 365.049 21.15ZM361.462 29.1V29.4C361.462 32.1 362.509 34.8 366.095 34.8C367.889 34.8 369.383 34.2 370.878 32.85L372.522 35.4C370.579 37.05 368.188 37.95 365.647 37.95C360.267 37.95 356.829 34.05 356.829 27.9C356.829 24.6 357.577 22.35 359.221 20.4C360.715 18.6 362.658 17.85 365.049 17.85C366.992 17.85 368.636 18.3 370.28 19.8C371.924 21.3 372.821 23.7 372.821 28.05V28.95H361.462V29.1Z" fill="#001633"/>
<path d="M386.122 22.05C385.674 21.9 385.375 21.75 384.926 21.75C383.133 21.75 381.788 23.1 381.34 24.6V37.5H377.155V24C377.155 21.6 376.856 20.1 376.408 18.9L380.144 17.85C380.592 18.75 380.891 19.8 380.891 20.85C382.386 18.75 383.88 17.85 385.674 17.85C386.271 17.85 386.72 18 387.168 18.15L386.122 22.05Z" fill="#001633"/>
<path d="M389.858 37.5V18.75L394.043 18V37.5H389.858ZM391.951 15.6C390.456 15.6 389.26 14.4 389.26 12.9C389.26 11.4 390.456 10.05 391.951 10.05C393.445 10.05 394.641 11.25 394.641 12.9C394.79 14.4 393.445 15.6 391.951 15.6Z" fill="#001633"/>
<path d="M408.39 28.5C404.206 28.5 403.01 29.7 403.01 32.1C403.01 33.9 404.056 35.1 405.7 35.1C407.045 35.1 408.241 34.35 409.138 33.15L409.287 28.65C409.138 28.5 408.689 28.5 408.39 28.5ZM412.725 38.4C411.529 37.95 410.632 37.05 410.184 35.85C408.689 37.65 407.045 38.25 404.953 38.25C400.619 38.25 398.676 35.85 398.676 32.55C398.676 28.2 401.964 25.95 408.091 25.95H409.287V24.9C409.287 22.65 408.839 21.6 406.597 21.6C404.206 21.6 401.516 23.4 400.918 23.85L399.124 20.85C401.964 19.05 404.355 18.3 407.195 18.3C410.184 18.3 412.127 19.35 413.023 21.45C413.322 22.35 413.322 23.25 413.322 26.1V31.5C413.322 34.05 413.472 34.95 414.966 35.85L412.725 38.4Z" fill="#001633"/>
<path d="M423.186 37.95C419.002 37.95 419.002 34.2 419.002 32.55V16.35C419.002 13.8 418.852 12.3 418.553 10.8L422.738 9.89999C423.037 11.1 423.037 12.6 423.037 15.15V31.35C423.037 33.9 423.186 34.35 423.485 34.8C423.784 35.1 424.382 35.4 424.83 35.1L425.577 37.65C424.83 37.8 424.083 37.95 423.186 37.95Z" fill="#001633"/>
<path d="M296.75 78V51.9H311.246L310.649 55.5H301.233V62.55H309.154V66.15H301.233V74.4H311.545V78H296.75Z" fill="#001633"/>
<path d="M325.893 78V65.4C325.893 62.85 325.295 62.1 323.651 62.1C322.455 62.1 320.662 63 319.466 64.2V78H315.431V64.05C315.431 62.1 315.282 60.9 314.684 59.55L318.42 58.5C318.868 59.4 319.167 60.15 319.167 61.2C321.26 59.4 322.904 58.5 324.996 58.5C327.985 58.5 329.928 60.3 329.928 63.75V78H325.893Z" fill="#001633"/>
<path d="M340.987 78.45C337.251 78.45 336.055 76.2 336.055 73.5V61.65H333.963V58.8H336.055C336.055 57.15 336.055 55.5 336.205 54.15L340.39 53.1C340.24 54.6 340.091 57 340.091 58.8H344.574L343.528 61.8H340.091V72.45C340.091 74.85 340.689 75.45 342.482 75.45C343.08 75.45 343.528 75.3 344.275 75L344.873 77.55C343.528 78.3 342.332 78.45 340.987 78.45Z" fill="#001633"/>
<path d="M355.185 61.65C352.794 61.65 351.599 63.45 351.599 66.6H358.473C358.473 63.45 357.128 61.65 355.185 61.65ZM351.449 69.6V69.9C351.449 72.6 352.495 75.3 356.082 75.3C357.876 75.3 359.37 74.7 360.865 73.35L362.509 75.9C360.566 77.55 358.174 78.45 355.634 78.45C350.253 78.45 346.816 74.55 346.816 68.4C346.816 65.1 347.563 62.85 349.207 60.9C350.702 59.1 352.645 58.35 355.036 58.35C356.979 58.35 358.623 58.8 360.267 60.3C361.911 61.8 362.807 64.2 362.807 68.55V69.45H351.449V69.6Z" fill="#001633"/>
<path d="M376.258 62.55C375.81 62.4 375.511 62.25 375.063 62.25C373.269 62.25 371.924 63.6 371.476 65.1V78H367.291V64.5C367.291 62.1 366.992 60.6 366.544 59.4L370.43 58.5C370.878 59.4 371.177 60.45 371.177 61.5C372.671 59.4 374.166 58.5 375.959 58.5C376.557 58.5 377.005 58.65 377.454 58.8L376.258 62.55Z" fill="#001633"/>
<path d="M388.065 61.95C386.57 61.95 385.225 62.7 384.03 63.9V73.5C385.076 74.55 386.271 75.15 387.617 75.15C390.456 75.15 391.652 73.05 391.652 68.55C391.652 64.2 390.755 61.95 388.065 61.95ZM388.513 78.45C386.869 78.45 385.375 77.85 384.03 76.95C384.03 77.1 384.179 77.85 384.179 78.9V85.2L380.144 86.25V63.9C380.144 61.5 379.994 60.6 379.696 59.1L383.432 58.35C383.581 58.95 383.731 59.55 383.731 60.75C384.926 59.25 386.869 58.5 388.812 58.5C392.698 58.5 395.986 61.35 395.986 68.1C396.135 74.4 393.296 78.45 388.513 78.45Z" fill="#001633"/>
<path d="M409.885 62.55C409.437 62.4 409.138 62.25 408.689 62.25C406.896 62.25 405.551 63.6 405.102 65.1V78H400.918V64.5C400.918 62.1 400.619 60.6 400.171 59.4L403.907 58.35C404.355 59.25 404.654 60.3 404.654 61.35C406.149 59.25 407.643 58.35 409.437 58.35C410.034 58.35 410.483 58.5 410.931 58.65L409.885 62.55Z" fill="#001633"/>
<path d="M413.472 78V59.25L417.656 58.5V78H413.472ZM415.564 56.1C414.07 56.1 412.874 54.9 412.874 53.4C412.874 51.9 414.07 50.55 415.564 50.55C417.059 50.55 418.254 51.75 418.254 53.4C418.404 54.9 417.059 56.1 415.564 56.1Z" fill="#001633"/>
<path d="M428.865 78.6C426.474 78.6 424.083 77.85 421.542 76.5L423.037 73.5C424.681 74.55 427.072 75.45 429.164 75.45C430.958 75.45 432.303 74.4 432.303 72.75C432.303 71.25 431.406 70.5 429.164 70.05L426.922 69.6C424.083 69 422.439 67.05 422.439 64.35C422.439 60.75 425.279 58.35 429.463 58.35C432.004 58.35 434.096 59.1 435.74 60L434.395 62.85C432.602 61.95 431.257 61.5 429.762 61.5C427.969 61.5 426.922 62.55 426.922 63.9C426.922 65.1 427.52 65.7 429.463 66.15L431.854 66.75C435.74 67.8 436.637 69.9 436.637 72C436.637 75.9 433.498 78.6 428.865 78.6Z" fill="#001633"/>
<path d="M448.145 61.65C445.753 61.65 444.558 63.45 444.558 66.6H451.582C451.582 63.45 450.237 61.65 448.145 61.65ZM444.558 69.6V69.9C444.558 72.6 445.604 75.3 449.191 75.3C450.984 75.3 452.479 74.7 453.973 73.35L455.617 75.9C453.674 77.55 451.283 78.45 448.743 78.45C443.362 78.45 439.925 74.55 439.925 68.4C439.925 65.1 440.672 62.85 442.316 60.9C443.811 59.1 445.753 58.35 448.145 58.35C450.088 58.35 451.732 58.8 453.376 60.3C455.02 61.8 455.916 64.2 455.916 68.55V69.45H444.558V69.6Z" fill="#001633"/>
<path d="M481.771 78H468.47V51.9H472.804V74.4H482.519L481.771 78Z" fill="#001633"/>
<path d="M494.325 69C490.141 69 488.945 70.2 488.945 72.6C488.945 74.4 489.991 75.6 491.635 75.6C492.98 75.6 494.176 74.85 495.073 73.65V69.15C495.073 69 494.624 69 494.325 69ZM498.66 78.75C497.464 78.3 496.567 77.4 496.119 76.2C494.624 78 492.98 78.6 490.888 78.6C486.554 78.6 484.611 76.2 484.611 72.9C484.611 68.55 487.899 66.3 494.027 66.3H495.372V65.25C495.372 63 494.923 61.95 492.681 61.95C490.29 61.95 487.6 63.75 487.002 64.2L485.209 61.2C488.048 59.4 490.44 58.65 493.279 58.65C496.268 58.65 498.211 59.7 499.108 61.8C499.407 62.7 499.407 63.6 499.407 66.45V71.85C499.407 74.4 499.556 75.3 501.051 76.2L498.66 78.75Z" fill="#001633"/>
<path d="M512.708 61.95C510.915 61.95 509.869 63 509.121 63.9V73.2C510.018 74.1 511.214 74.85 512.708 74.85C515.249 74.85 516.444 72.9 516.444 68.25C516.295 64.8 515.697 61.95 512.708 61.95ZM513.455 78.45C511.512 78.45 510.018 77.7 508.822 76.2C508.673 77.25 508.523 77.55 508.225 78H504.488C504.787 77.1 504.937 76.35 504.937 73.8V55.8C504.937 53.55 504.787 52.2 504.488 51.15L508.822 50.25C509.121 51.6 509.121 52.5 509.121 54V58.5C509.121 59.55 509.121 60.15 508.972 60.3H509.121C510.466 58.95 511.811 58.5 513.605 58.5C518.088 58.5 521.077 62.25 521.077 68.25C521.077 74.25 517.789 78.45 513.455 78.45Z" fill="#001633"/>
</g>
<path d="M630.046 79.9L629.902 80.044C627.579 82.4205 624.879 83.6807 622.088 83.6807C616.273 83.6807 612.06 79.3239 612.06 73.3107C612.06 67.2975 616.273 62.9406 622.088 62.9406C624.879 62.9406 627.579 64.2008 629.902 66.5953L630.046 66.7393L633.79 62.2204L633.7 62.0944C630.586 58.4217 626.859 56.6213 622.286 56.6213C617.677 56.6213 613.482 58.1696 610.44 60.9602C607.145 63.9848 605.417 68.2517 605.417 73.3107C605.417 78.3517 607.145 82.6185 610.44 85.6611C613.482 88.4517 617.695 90 622.286 90C626.859 90 630.604 88.2177 633.7 84.5269L633.79 84.4009L630.046 79.9Z" fill="#23356D"/>
<path d="M637.553 57.1614V89.3879H644.16V85.7151V57.1614H637.553Z" fill="#23356D"/>
<path d="M670.032 82.3845C668.267 83.4647 666.629 84.0048 665.153 84.0048C663.01 84.0048 662.056 82.8886 662.056 80.3681V63.2646H668.771V57.1974H662.056V47.1694L655.575 50.6441V57.2154H649.994V63.2826H655.575V81.4663C655.575 86.4173 658.509 89.8199 662.902 89.892C665.873 89.946 667.673 89.0638 668.753 88.4157L668.825 88.3797L670.428 82.1684L670.032 82.3845Z" fill="#23356D"/>
<path d="M675.505 57.1614V89.3879H682.094V85.7151V57.1614H675.505Z" fill="#23356D"/>
<path d="M686.253 51.9404C680.744 43.6767 670.572 37.8616 659.716 37.8616C649.021 37.8616 638.849 43.5147 633.16 51.9404H640.758C645.943 46.6113 652.658 43.6947 659.716 43.6947C666.647 43.6947 673.47 46.6113 678.655 51.9404H686.253Z" fill="#ED2024"/>
<path d="M545.897 17.0494C541.936 17.0494 539.343 13.4667 539.343 8.73174C539.343 3.97879 542.062 0.414078 545.969 0.414078C548.165 0.414078 549.804 1.24224 551.118 2.97059L549.66 4.08681C548.633 2.64652 547.679 2.0344 545.933 2.0344C543.142 2.0344 541.18 4.80696 541.18 8.67773C541.18 12.6385 543.214 15.4291 545.951 15.4291C547.679 15.4291 548.867 14.6549 549.894 13.2867L551.172 14.3669C549.966 15.9692 548.237 17.0494 545.897 17.0494Z" fill="#23356D"/>
<path d="M554.592 2.50249C553.89 2.50249 553.332 1.96238 553.332 1.29625C553.332 0.612113 553.872 0.0540009 554.592 0.0540009C555.241 0.0540009 555.781 0.594109 555.781 1.29625C555.781 1.96238 555.223 2.50249 554.592 2.50249ZM553.692 16.7973V4.69893H555.403V15.069V16.7973H553.692Z" fill="#23356D"/>
<path d="M560.822 6.13923V14.0068C560.822 15.123 561.128 15.5011 562.046 15.5011C562.766 15.5011 563.216 15.3931 563.774 15.159L563.666 16.6533C563 16.9234 562.37 17.0674 561.398 17.0674C559.904 17.0674 559.111 16.3293 559.111 14.2949V6.15723H557.617V4.71694H559.111V0.95419L560.822 0V4.69894H563.846V6.13923H560.822Z" fill="#23356D"/>
<path d="M567.447 2.50249C566.745 2.50249 566.187 1.96238 566.187 1.29625C566.187 0.612113 566.727 0.0540009 567.447 0.0540009C568.131 0.0540009 568.689 0.594109 568.689 1.29625C568.689 1.96238 568.131 2.50249 567.447 2.50249ZM566.565 16.7973V4.69893H568.329V14.5109V16.7973H566.565Z" fill="#23356D"/>
<path d="M578.735 2.26847V7.61554H583.182V9.28988H578.735V16.7974H576.953V0.648148H586.441V2.26847H578.735Z" fill="#23356D"/>
<path d="M591.356 17.0494C588.385 17.0494 586.135 14.871 586.135 10.7661C586.135 6.64333 588.457 4.46489 591.446 4.46489C594.362 4.46489 596.649 6.57131 596.649 10.6761C596.649 14.781 594.272 17.0494 591.356 17.0494ZM591.392 5.94119C589.267 5.94119 587.881 7.5255 587.881 10.7121C587.881 13.8628 589.267 15.5551 591.392 15.5551C593.48 15.5551 594.885 13.8628 594.885 10.7121C594.903 7.5075 593.48 5.94119 591.392 5.94119Z" fill="#23356D"/>
<path d="M606.605 16.7974V15.3391C605.903 16.3473 604.769 17.0494 603.274 17.0494C600.7 17.0494 599.025 15.5551 599.025 12.0624V4.69894H600.736V11.7564C600.736 14.3489 601.69 15.5551 603.616 15.5551C605.291 15.5551 606.605 14.4389 606.605 11.7564V4.69894H608.333V16.7974H606.605Z" fill="#23356D"/>
<path d="M619.009 16.7974V9.73994C619.009 7.11142 618.091 5.94118 616.129 5.94118C614.454 5.94118 613.158 7.05741 613.158 9.73994V16.7974H611.394V4.69893H613.158V6.15723C613.842 5.14902 614.959 4.44688 616.471 4.44688C619.063 4.44688 620.72 5.94118 620.72 9.43388V16.7974H619.009Z" fill="#23356D"/>
<path d="M631.072 16.7974V15.3391C630.226 16.2573 629.091 17.0494 627.417 17.0494C625.023 17.0494 623.078 15.231 623.078 10.9462C623.078 6.64333 625.131 4.44689 627.651 4.44689C629.199 4.44689 630.226 5.09502 631.09 6.04921V0.95419L632.8 0V16.7974H631.072ZM631.072 7.74155C630.406 6.73335 629.235 5.94119 627.777 5.94119C625.779 5.94119 624.807 7.65153 624.807 10.9282C624.807 13.9528 625.941 15.5731 627.849 15.5731C629.181 15.5731 630.226 14.889 631.072 13.7908V7.74155V7.74155Z" fill="#23356D"/>
<path d="M642.828 16.7974V15.3391C641.982 16.2573 640.794 17.0494 639.083 17.0494C637.157 17.0494 635.195 16.1132 635.195 13.1606C635.195 10.4601 637.445 9.32588 639.84 9.32588C641.046 9.32588 642.126 9.63194 642.828 10.01V8.55172C642.828 6.76937 641.982 5.90519 640.218 5.90519C638.957 5.90519 637.931 6.24726 636.851 6.82338L636.239 5.4371C637.337 4.86098 638.777 4.48291 640.326 4.48291C642.9 4.48291 644.539 5.58113 644.539 8.37169V16.8334H642.828V16.7974ZM642.828 11.3783C642.054 10.9462 641.208 10.6942 639.75 10.6942C637.985 10.6942 636.851 11.5403 636.851 13.0526C636.851 14.889 637.931 15.6631 639.389 15.6631C640.938 15.6631 642.108 14.871 642.846 13.8088V11.3783H642.828Z" fill="#23356D"/>
<path d="M649.724 6.13923V14.0068C649.724 15.123 650.03 15.5011 650.93 15.5011C651.614 15.5011 652.064 15.3931 652.622 15.159L652.514 16.6533C651.848 16.9234 651.218 17.0674 650.3 17.0674C648.823 17.0674 648.013 16.3293 648.013 14.2949V6.15723H646.519V4.71694H648.013V0.95419L649.724 0V4.69894H652.694V6.13923H649.724Z" fill="#23356D"/>
<path d="M656.493 2.50249C655.791 2.50249 655.233 1.96238 655.233 1.29625C655.233 0.612113 655.791 0.0540009 656.493 0.0540009C657.141 0.0540009 657.681 0.594109 657.681 1.29625C657.681 1.96238 657.123 2.50249 656.493 2.50249ZM655.593 16.7973V4.69893H657.303V14.889V16.7973H655.593Z" fill="#23356D"/>
<path d="M665.009 17.0494C662.092 17.0494 659.842 14.871 659.842 10.7661C659.842 6.64333 662.164 4.46489 665.099 4.46489C668.033 4.46489 670.266 6.57131 670.266 10.6761C670.266 14.781 667.925 17.0494 665.009 17.0494ZM665.063 5.94119C662.992 5.94119 661.588 7.5255 661.588 10.7121C661.588 13.8628 662.992 15.5551 665.063 15.5551C667.151 15.5551 668.555 13.8628 668.555 10.7121C668.555 7.5075 667.133 5.94119 665.063 5.94119Z" fill="#23356D"/>
<path d="M680.384 16.7974V9.73994C680.384 7.11142 679.466 5.94118 677.557 5.94118C675.703 5.94118 674.389 7.05741 674.389 9.73994V16.7974H672.678V4.69893H674.389V6.15723C675.073 5.14902 676.333 4.44688 677.899 4.44688C680.438 4.44688 682.094 5.94118 682.094 9.43388V16.7974H680.384Z" fill="#23356D"/>
<defs>
<clipPath id="clip0">
<rect width="242.113" height="90" fill="white" transform="translate(288.231)"/>
</clipPath>
</defs>
</svg>
