<svg width="36" height="40" viewBox="0 0 36 40" fill="none" xmlns="http://www.w3.org/2000/svg">
<path d="M17.9548 0C8.03977 0 0 8.06 0 18C0 26.34 5.66574 33.34 13.3464 35.38L17.9548 40L22.5632 35.38C30.2439 33.34 35.9096 26.34 35.9096 18C35.9096 8.06 27.8699 0 17.9548 0Z" fill="#007AFF"/>
<path d="M9.55698 30.3131V20.8779H7.68945V13.9588C7.68945 12.5749 8.80997 11.4427 10.1795 11.4427H13.9145C15.2841 11.4427 16.4046 12.5749 16.4046 13.9588V20.8779H14.537V30.3131H9.55698ZM25.1197 30.3131V22.765H28.8547L25.6924 13.1662C25.3438 12.1346 24.3976 11.4427 23.3269 11.4427H23.1775C22.1067 11.4427 21.1481 12.1346 20.8119 13.1662L17.6496 22.765H21.3846V30.3131H25.1197ZM12.047 10.1847C13.429 10.1847 14.537 9.06505 14.537 7.66864C14.537 6.27223 13.429 5.15259 12.047 5.15259C10.665 5.15259 9.55698 6.27223 9.55698 7.66864C9.55698 9.06505 10.665 10.1847 12.047 10.1847ZM23.2522 10.1847C24.6341 10.1847 25.7422 9.06505 25.7422 7.66864C25.7422 6.27223 24.6341 5.15259 23.2522 5.15259C21.8702 5.15259 20.7621 6.27223 20.7621 7.66864C20.7621 9.06505 21.8702 10.1847 23.2522 10.1847Z" fill="white"/>
</svg>
