<svg width="140" height="140" viewBox="0 0 140 140" fill="none" xmlns="http://www.w3.org/2000/svg">
<path d="M32.0833 128.333V84.5833H23.3333V52.5C23.3333 46.0833 28.5833 40.8333 34.9999 40.8333H52.4999C58.9166 40.8333 64.1666 46.0833 64.1666 52.5V84.5833H55.4166V128.333H32.0833ZM105 128.333V93.3333H122.5L107.683 48.825C106.05 44.0417 101.617 40.8333 96.5999 40.8333H95.8999C90.8833 40.8333 86.3916 44.0417 84.8166 48.825L69.9999 93.3333H87.4999V128.333H105ZM43.7499 35C50.2249 35 55.4166 29.8083 55.4166 23.3333C55.4166 16.8583 50.2249 11.6667 43.7499 11.6667C37.2749 11.6667 32.0833 16.8583 32.0833 23.3333C32.0833 29.8083 37.2749 35 43.7499 35ZM96.2499 35C102.725 35 107.917 29.8083 107.917 23.3333C107.917 16.8583 102.725 11.6667 96.2499 11.6667C89.7749 11.6667 84.5832 16.8583 84.5832 23.3333C84.5832 29.8083 89.7749 35 96.2499 35Z" fill="black"/>
</svg>
