<svg width="140" height="140" viewBox="0 0 140 140" fill="none" xmlns="http://www.w3.org/2000/svg">
<path d="M29.1666 64.1667H5.83325V128.333H29.1666V64.1667Z" fill="black"/>
<path d="M93.3333 18.9583C97.1249 14.525 103.017 11.6667 109.083 11.6667C119.875 11.6667 128.333 20.125 128.333 30.9167C128.333 44.1583 111.358 59.5 93.3333 75.8333C75.3083 59.4417 58.3333 44.1 58.3333 30.9167C58.3333 20.125 66.7916 11.6667 77.5833 11.6667C83.6499 11.6667 89.5416 14.525 93.3333 18.9583Z" fill="black"/>
<path d="M116.667 99.1667H75.8333L63.6416 94.9083L65.5666 89.425L75.8333 93.3333H92.2833C96.0749 93.3333 99.1666 90.2417 99.1666 86.45C99.1666 83.5917 97.3583 81.025 94.6749 79.975L52.3249 64.1667H40.8333V116.783L81.6666 128.333L128.392 110.833C128.333 104.417 123.142 99.1667 116.667 99.1667Z" fill="black"/>
</svg>
