<svg width="596" height="598" viewBox="0 0 596 598" fill="none" xmlns="http://www.w3.org/2000/svg">
<defs>
      <linearGradient id="Gradient1" x1="0%" y1="0%" x2="0%" y2="100%">
        <stop class="stop1" offset="0%"/>
        <stop class="stop2" offset="50%"/>
	<stop class="stop4" offset="100%"/>
      </linearGradient>
      <style type="text/css"><![CDATA[
        #group1 { fill: url(#Gradient1); }
        .stop1 { stop-color: #5ab9ea; }
        .stop2 { stop-color: #84ceeb; }
	.stop4 { stop-color: #8860d0; }
      ]]></style>
</defs>
<g id="group1">
<path fill-rule="evenodd" clip-rule="evenodd" d="M280 140C280 217.32 217.32 280 140 280C62.6801 280 0 217.32 0 140C0 62.6801 62.6801 0 140 0C217.32 0 280 62.6801 280 140ZM127.545 50.4387C127.545 45.6819 131.401 41.8257 136.158 41.8257C140.915 41.8257 144.771 45.6819 144.771 50.4387V159.555L199.258 191.014C203.378 193.392 204.789 198.66 202.411 202.779C200.032 206.899 194.765 208.31 190.645 205.932L132.494 172.358C131.61 171.942 130.809 171.38 130.12 170.704C128.117 168.787 127.177 166.022 127.545 163.32V50.4387Z"/>
<path d="M429.16 135.003C428.644 133.143 426.811 131.939 424.88 132.279C385.14 139.287 358.358 175.781 365.06 213.792C371.762 251.803 409.412 276.937 449.152 269.93C479.975 264.495 503.004 241.32 508.658 213.458C509.544 209.091 506.262 205.153 501.786 204.597L499.389 204.3C494.503 203.693 490.163 207.343 489.006 212.069C484.227 231.591 467.736 247.614 445.896 251.464C416.818 256.592 389.269 238.201 384.365 210.388C379.461 182.575 399.058 155.872 428.136 150.745C430.822 150.271 432.681 147.674 431.962 145.086L429.16 135.003Z" fill="#8860d0"/>
<path d="M434.108 85.74L429.685 85.9854C421.399 86.4453 415.554 94.2803 417.512 102.304L440.538 196.695C441.938 202.435 447 206.543 452.932 206.754L534.052 209.641C542.491 209.941 549.072 202.419 547.612 194.142L546.69 188.91L468.538 186.129C462.606 185.918 457.544 181.809 456.143 176.07L434.108 85.74Z" fill="#8860d0"/>
<path d="M533.511 204.045C531.918 200.782 532.759 196.856 535.551 194.516L540.144 190.667C544.233 187.24 550.48 188.711 552.58 193.596L571.16 236.8C572.579 240.101 571.588 243.943 568.745 246.161L565.876 248.398C561.883 251.512 556.028 250.172 553.815 245.637L533.511 204.045Z" fill="#8860d0"/>
<path d="M436.672 119.608C435.771 114.502 439.246 109.622 444.432 108.707L497.645 99.3245C502.831 98.41 507.766 101.808 508.666 106.914L508.847 107.941C509.747 113.047 506.273 117.928 501.087 118.842L447.873 128.225C442.687 129.14 437.753 125.742 436.853 120.636L436.672 119.608Z" fill="#8860d0"/>
<path d="M446.947 43.654C449.948 60.6739 438.367 76.9423 421.079 79.9906C403.792 83.0388 387.344 71.7126 384.343 54.6927C381.342 37.6728 392.924 21.4043 410.211 18.3561C427.499 15.3078 443.946 26.6341 446.947 43.654Z" fill="#8860d0"/>
<path d="M199.919 345.449C199.919 360.82 186.668 373.281 170.323 373.281C153.978 373.281 140.728 360.82 140.728 345.449C140.728 330.078 153.978 317.618 170.323 317.618C186.668 317.618 199.919 330.078 199.919 345.449Z" fill="#8860d0"/>
<path d="M100.104 366.546C113.331 356.108 133.052 357.73 144.151 370.169C155.25 382.609 153.525 401.154 140.297 411.591L63.6152 472.101C50.3879 482.539 30.6674 480.916 19.5684 468.477C8.46934 456.038 10.1946 437.493 23.422 427.055L100.104 366.546Z" fill="#8860d0"/>
<path d="M24.6504 464.036L52.1944 458.057L79.7578 525.998L58.2101 538.527L24.6504 464.036Z" fill="#8860d0"/>
<path d="M57.165 527.224C59.1374 520.873 66.4712 517.475 73.0281 519.873C78.8508 522.003 81.9605 527.979 80.176 533.609L62.4097 589.667C60.0419 597.138 50.4463 600.059 43.8725 595.309C40.0057 592.515 38.3592 587.775 39.7264 583.373L57.165 527.224Z" fill="#8860d0"/>
<path d="M11.887 450.056L37.8658 447.359L39.5308 502.859L16.2408 503.111L11.887 450.056Z" fill="#8860d0"/>
<path d="M15.4698 499.681C16.0285 496.706 17.7524 494.037 20.3012 492.199C29.6231 485.476 42.8558 493.079 40.7491 503.947L25.0019 585.184C23.7636 591.572 17.2897 595.833 10.4835 594.741C3.59485 593.635 -1.02141 587.469 0.194304 580.997L15.4698 499.681Z" fill="#8860d0"/>
<path d="M130.055 392.868C129.38 391.099 129.225 389.191 129.607 387.347C131.754 376.981 147.039 375.832 150.911 385.744L161.865 413.79C164.007 419.276 160.995 425.353 155.15 427.339C149.32 429.319 142.888 426.473 140.793 420.987L130.055 392.868Z" fill="#8860d0"/>
<path d="M150.722 431.515C145.202 429.626 142.356 423.887 144.365 418.696C146.374 413.506 152.477 410.83 157.996 412.719L201.723 427.686C207.243 429.575 210.089 435.314 208.08 440.504C206.071 445.695 199.968 448.371 194.449 446.482L150.722 431.515Z" fill="#8860d0"/>
<path d="M144.21 514.366C144.21 511.653 146.548 509.454 149.433 509.454H274.777C277.662 509.454 280 511.653 280 514.366C280 517.078 277.662 519.277 274.777 519.277H149.433C146.548 519.277 144.21 517.078 144.21 514.366Z" fill="#8860d0"/>
<path d="M158.137 491.445C158.137 485.116 163.593 479.985 170.323 479.985H222.55C229.281 479.985 234.737 485.116 234.737 491.445C234.737 497.775 229.281 502.906 222.55 502.906H170.323C163.593 502.906 158.137 497.775 158.137 491.445Z" fill="#8860d0"/>
<path d="M167.519 463.614L176.901 468.525L179.028 487.882L158.137 493.083L167.519 463.614Z" fill="#8860d0"/>
<path d="M156.368 460.913C157.089 458.908 159.457 457.888 161.543 458.684L174.684 463.701C177.347 464.717 178.033 467.964 175.987 469.861C174.837 470.926 173.119 471.237 171.632 470.649L158.557 465.482C156.666 464.734 155.71 462.74 156.368 460.913Z" fill="#8860d0"/>
<path d="M224.132 491.697C222.822 491.008 221.911 489.802 221.65 488.413L218.242 470.234C217.737 467.541 219.649 464.973 222.513 464.498C225.433 464.014 228.203 465.891 228.637 468.65L231.509 486.91C232.116 490.767 227.751 493.599 224.132 491.697Z" fill="#8860d0"/>
<path d="M266.073 486.534C266.073 493.767 259.837 499.631 252.146 499.631C244.454 499.631 238.218 493.767 238.218 486.534C238.218 479.301 244.454 473.437 252.146 473.437C259.837 473.437 266.073 479.301 266.073 486.534Z" fill="#8860d0"/>
<path fill-rule="evenodd" clip-rule="evenodd" d="M456 597.618C533.32 597.618 596 534.937 596 457.618C596 380.298 533.32 317.618 456 317.618C378.68 317.618 316 380.298 316 457.618C316 534.937 378.68 597.618 456 597.618ZM445.734 434.539V510.618H466.125V434.539H445.734ZM447.562 407.328C445.547 409.297 444.539 411.805 444.539 414.852C444.539 417.946 445.57 420.477 447.633 422.446C449.742 424.414 452.508 425.399 455.93 425.399C459.352 425.399 462.094 424.414 464.156 422.446C466.266 420.477 467.32 417.946 467.32 414.852C467.32 411.805 466.289 409.297 464.227 407.328C462.164 405.36 459.398 404.375 455.93 404.375C452.414 404.375 449.625 405.36 447.562 407.328Z"/>
</g>
</svg>
