<svg width="549" height="583" viewBox="0 0 549 583" fill="none" xmlns="http://www.w3.org/2000/svg">
<defs>
      <linearGradient id="Gradient1" x1="0%" y1="0%" x2="0%" y2="100%">
        <stop class="stop2" offset="0%"/>
	    <stop class="stop3" offset="50%"/>
	    <stop class="stop4" offset="100%"/>
      </linearGradient>
      <linearGradient id="Gradient2" x1="0%" y1="0%" x2="100%" y2="0%">
        <stop class="stop1" offset="0%"/>
        <stop class="stop2" offset="100%"/>
      </linearGradient>
      <style type="text/css"><![CDATA[
        #group1 { fill: url(#Gradient1); }
        #group2 { fill: url(#Gradient2); }
        .stop1 { stop-color: #5ab9ea; }
        .stop2 { stop-color: #84ceeb; }
	    .stop3 { stop-color: #8860d0; }
	    .stop4 { stop-color: #5680e9; }
      ]]></style>
</defs>
<g id="group2">
<path d="M44.8189 2.06998C45.7189 -0.689998 49.6234 -0.68999 50.5233 2.06999L59.7261 30.2933C60.1287 31.5279 61.2798 32.3633 62.5783 32.3633L92.3366 32.3633C95.2453 32.3633 96.4519 36.0876 94.0958 37.7933L70.0392 55.2098C68.984 55.9738 68.5424 57.3314 68.9463 58.5699L78.1394 86.7636C79.04 89.5257 75.8811 91.8273 73.5279 90.1236L49.4304 72.6775C48.3807 71.9175 46.9616 71.9175 45.9119 72.6775L21.8144 90.1236C19.4612 91.8273 16.3023 89.5257 17.2029 86.7636L26.396 58.5699C26.7999 57.3314 26.3583 55.9738 25.3031 55.2098L1.24647 37.7933C-1.10962 36.0876 0.0969999 32.3633 3.00574 32.3633L32.764 32.3633C34.0625 32.3633 35.2136 31.5279 35.6162 30.2933L44.8189 2.06998Z"  />
<path d="M158.219 2.06998C159.119 -0.689998 163.023 -0.68999 163.923 2.06999L173.126 30.2933C173.529 31.5279 174.68 32.3633 175.978 32.3633L205.737 32.3633C208.645 32.3633 209.852 36.0876 207.496 37.7933L183.439 55.2098C182.384 55.9738 181.942 57.3314 182.346 58.5699L191.539 86.7636C192.44 89.5257 189.281 91.8273 186.928 90.1236L162.83 72.6775C161.781 71.9175 160.362 71.9175 159.312 72.6775L135.214 90.1236C132.861 91.8273 129.702 89.5257 130.603 86.7636L139.796 58.5699C140.2 57.3314 139.758 55.9738 138.703 55.2098L114.646 37.7933C112.29 36.0876 113.497 32.3633 116.406 32.3633L146.164 32.3633C147.462 32.3633 148.614 31.5279 149.016 30.2933L158.219 2.06998Z"  />
<path d="M271.619 2.06998C272.519 -0.689999 276.423 -0.689988 277.323 2.06999L286.526 30.2933C286.929 31.5279 288.08 32.3633 289.378 32.3633L319.137 32.3633C322.045 32.3633 323.252 36.0876 320.896 37.7933L296.839 55.2098C295.784 55.9738 295.342 57.3314 295.746 58.5699L304.939 86.7636C305.84 89.5257 302.681 91.8273 300.328 90.1236L276.23 72.6775C275.181 71.9175 273.762 71.9175 272.712 72.6775L248.614 90.1236C246.261 91.8273 243.102 89.5257 244.003 86.7636L253.196 58.5699C253.6 57.3314 253.158 55.9738 252.103 55.2098L228.046 37.7933C225.69 36.0876 226.897 32.3633 229.806 32.3633L259.564 32.3633C260.862 32.3633 262.014 31.5279 262.416 30.2933L271.619 2.06998Z"  />
<path d="M385.019 2.06998C385.919 -0.689999 389.823 -0.689988 390.723 2.06999L399.926 30.2933C400.329 31.5279 401.48 32.3633 402.778 32.3633L432.537 32.3633C435.445 32.3633 436.652 36.0876 434.296 37.7933L410.239 55.2098C409.184 55.9738 408.742 57.3314 409.146 58.5699L418.339 86.7636C419.24 89.5257 416.081 91.8273 413.728 90.1236L389.63 72.6775C388.581 71.9175 387.162 71.9175 386.112 72.6775L362.014 90.1236C359.661 91.8273 356.502 89.5257 357.403 86.7636L366.596 58.5699C367 57.3314 366.558 55.9738 365.503 55.2098L341.446 37.7933C339.09 36.0876 340.297 32.3633 343.206 32.3633L372.964 32.3633C374.262 32.3633 375.414 31.5279 375.816 30.2933L385.019 2.06998Z"  />
<path d="M498.419 2.06998C499.319 -0.689999 503.223 -0.689988 504.123 2.06999L513.326 30.2933C513.729 31.5279 514.88 32.3633 516.178 32.3633L545.937 32.3633C548.845 32.3633 550.052 36.0876 547.696 37.7933L523.639 55.2098C522.584 55.9738 522.142 57.3314 522.546 58.5699L531.739 86.7636C532.64 89.5257 529.481 91.8273 527.128 90.1236L503.03 72.6775C501.981 71.9175 500.562 71.9175 499.512 72.6775L475.414 90.1236C473.061 91.8273 469.902 89.5257 470.803 86.7636L479.996 58.5699C480.4 57.3314 479.958 55.9738 478.903 55.2098L454.846 37.7933C452.49 36.0876 453.697 32.3633 456.606 32.3633L486.364 32.3633C487.662 32.3633 488.814 31.5279 489.216 30.2933L498.419 2.06998Z" fill="#5680e9" />
</g>
<g id="group1">
<path fill-rule="evenodd" clip-rule="evenodd" d="M370.896 418.006C392.221 394.676 405.23 363.616 405.23 329.517C405.23 257.061 346.492 198.323 274.036 198.323C201.579 198.323 142.841 257.061 142.841 329.517C142.841 363.947 156.104 395.279 177.799 418.684L132.361 543.524C132.146 544.116 132.451 544.77 133.043 544.985C133.291 545.076 133.562 545.077 133.811 544.989L193.282 524.061C197.334 522.635 201.828 524.271 204.015 527.968L236.14 582.261C236.261 582.466 236.45 582.623 236.674 582.704C237.209 582.899 237.799 582.623 237.994 582.089L274.471 481.869L310.911 581.987C311.126 582.577 311.779 582.882 312.37 582.667C312.619 582.576 312.829 582.401 312.963 582.173L344.926 527.613C347.112 523.882 351.643 522.233 355.716 523.686L415.308 544.949C415.534 545.03 415.78 545.029 416.005 544.947C416.539 544.753 416.814 544.163 416.619 543.629L370.896 418.006ZM184.82 425.708C206.556 445.878 235.14 458.77 266.697 460.51L269.682 468.712L235.302 563.171L211.761 523.384C207.386 515.991 198.398 512.72 190.294 515.571L146.504 530.982L184.82 425.708ZM282.264 460.458C313.783 458.507 342.289 445.428 363.901 425.101L402.363 530.774L358.74 515.21C350.594 512.303 341.532 515.601 337.16 523.064L313.649 563.196L279.26 468.712L282.264 460.458ZM271.378 235.318C272.291 232.587 276.155 232.587 277.068 235.318L297.228 295.601C297.637 296.825 298.783 297.65 300.073 297.65H365.124C368.051 297.65 369.246 301.413 366.854 303.101L314.377 340.144C313.295 340.908 312.842 342.29 313.262 343.546L333.341 403.588C334.261 406.337 331.134 408.662 328.766 406.991L275.953 369.71C274.916 368.978 273.53 368.978 272.493 369.71L219.679 406.991C217.312 408.662 214.185 406.337 215.104 403.588L235.184 343.546C235.604 342.29 235.151 340.908 234.069 340.144L181.591 303.101C179.2 301.413 180.394 297.65 183.321 297.65H248.373C249.663 297.65 250.808 296.825 251.218 295.601L271.378 235.318Z"/>
</g>
</svg>
