<svg width="600" height="600" viewBox="0 0 600 600" fill="none" xmlns="http://www.w3.org/2000/svg">
<defs>
      <linearGradient id="Gradient1" x1="0%" y1="0%" x2="0%" y2="100%">
        <stop class="stop1" offset="0%"/>
        <stop class="stop2" offset="25%"/>
	<stop class="stop4" offset="75%"/>
	<stop class="stop5" offset="100%"/>
      </linearGradient>
      <style type="text/css"><![CDATA[
        #group1 { fill: url(#Gradient1); }
        .stop1 { stop-color: #5ab9ea; }
        .stop2 { stop-color: #84ceeb; }
	.stop4 { stop-color: #8860d0; }
	.stop5 { stop-color: #5680e9; }
      ]]></style>
</defs>
<g id="group1">
<path d="M266.297 184.218L257.711 189.186L258.386 171.657L258.384 170.482L266.297 184.218Z" fill="#84ceeb"/>
<path d="M321.505 146.68C322.139 145.434 323.078 144.452 324.322 143.731C326.064 142.723 327.825 142.571 329.606 143.275C331.386 143.979 332.887 145.391 334.108 147.512C335.309 149.596 335.774 151.596 335.502 153.511C335.238 155.398 334.28 156.819 332.626 157.776C330.795 158.835 328.957 158.937 327.113 158.08C325.258 157.205 323.586 155.476 322.098 152.893L320.743 150.541C320.607 149.195 320.861 147.907 321.505 146.68Z" fill="#84ceeb"/>
<path fill-rule="evenodd" clip-rule="evenodd" d="M60.407 161.303C55.2365 164.295 53.4649 170.921 56.4501 176.103L284.857 572.581C287.842 577.763 294.453 579.538 299.624 576.547L539.593 437.697C544.764 434.705 546.535 428.079 543.55 422.897L315.143 26.4188C312.158 21.237 305.547 19.4616 300.376 22.4533L60.407 161.303ZM178.009 334.473L391.217 211.108L382.209 195.47L169 318.836L178.009 334.473ZM305.209 324.742C303.659 316.375 313.463 310.702 319.919 316.231L363.344 353.425C365.342 355.136 367.985 355.887 370.582 355.482L426.316 346.794C434.449 345.526 439.88 354.952 434.717 361.377L399.342 405.406C397.695 407.458 397.022 410.128 397.502 412.717L407.929 469.004C409.48 477.371 399.675 483.044 393.22 477.515L349.794 440.321C347.796 438.611 345.153 437.859 342.556 438.264L286.822 446.952C278.689 448.22 273.259 438.794 278.421 432.369L313.796 388.34C315.444 386.289 316.116 383.619 315.636 381.029L305.209 324.742ZM162.978 263.527L170.684 259.068L148.238 220.104L147.411 220.582L134.657 235.658L138.275 241.939L145.827 233.756L162.978 263.527ZM183.324 251.754L209.936 236.356L206.349 230.129L189.656 239.788L193.11 225.354C193.998 221.301 194.365 217.988 194.211 215.417C194.057 212.845 193.426 210.597 192.318 208.673C190.296 205.164 187.619 203.089 184.289 202.451C180.976 201.802 177.32 202.635 173.32 204.95C170.706 206.462 168.692 208.376 167.276 210.691C165.851 212.989 165.133 215.447 165.125 218.065C165.134 220.673 165.821 223.162 167.186 225.531L174.919 221.057C173.79 219.097 173.379 217.232 173.687 215.462C174.003 213.665 175.031 212.262 176.773 211.254C178.391 210.318 179.923 210.096 181.369 210.59C182.804 211.066 184.02 212.168 185.016 213.896C185.744 215.161 186.096 216.739 186.072 218.63C186.065 220.511 185.743 222.894 185.107 225.78L180.276 246.463L183.324 251.754ZM213.451 203.821L209.344 206.197L212.823 212.237L216.903 209.876C221.17 207.408 224.422 208.115 226.659 211.999C227.583 213.603 227.803 215.198 227.318 216.785C226.842 218.343 225.688 219.652 223.857 220.712C222.257 221.638 220.639 221.956 219.003 221.667C217.385 221.368 216.155 220.489 215.313 219.028L207.607 223.487C209.547 226.854 212.333 228.852 215.967 229.482C219.618 230.101 223.382 229.289 227.257 227.047C231.399 224.65 234.123 221.684 235.429 218.149C236.752 214.604 236.418 211.104 234.427 207.647C233.196 205.509 231.586 203.97 229.598 203.03C227.629 202.079 225.325 201.844 222.686 202.326C223.984 200.506 224.745 198.534 224.967 196.41C225.189 194.286 224.787 192.333 223.761 190.551C221.77 187.095 219.045 185.06 215.587 184.448C212.119 183.818 208.332 184.691 204.225 187.067C201.861 188.435 199.954 190.144 198.504 192.195C197.072 194.235 196.272 196.385 196.104 198.644C195.943 200.874 196.448 203.005 197.618 205.036L205.324 200.577C204.575 199.277 204.467 197.938 205.001 196.56C205.524 195.164 206.524 194.04 207.999 193.186C209.635 192.24 211.166 191.935 212.593 192.274C214.039 192.601 215.213 193.549 216.116 195.117C217.05 196.738 217.328 198.312 216.95 199.837C216.573 201.362 215.406 202.69 213.451 203.821ZM278.404 177.213L274.004 179.759L260.025 155.493L252.238 159.999L250.817 194.993L253.965 199.656L269.885 190.445L274.734 198.863L282.441 194.404L277.591 185.986L281.991 183.44L278.404 177.213ZM271.971 148.581L281.124 169.653L288.134 167.628L288.481 166.501C289.064 164.88 290.272 163.541 292.103 162.481C294.094 161.329 295.97 161.027 297.732 161.576C299.494 162.124 301.011 163.503 302.284 165.712C303.608 168.01 304.163 170.064 303.95 171.875C303.726 173.667 302.743 175.067 301.001 176.075C299.436 176.98 297.909 177.27 296.418 176.945C294.934 176.592 293.646 175.651 292.552 174.122L284.925 178.535C286.269 180.703 288.016 182.317 290.168 183.377C292.336 184.426 294.702 184.85 297.265 184.65C299.818 184.432 302.268 183.644 304.615 182.286C307.299 180.733 309.315 178.842 310.662 176.614C311.999 174.367 312.622 171.952 312.532 169.368C312.449 166.755 311.684 164.193 310.236 161.681C307.855 157.547 304.954 154.938 301.532 153.854C298.11 152.769 294.551 153.297 290.853 155.436C288.791 156.629 287.127 158.246 285.86 160.285L282.001 151.365L297.441 142.431L293.73 135.991L271.971 148.581ZM324.283 126.259L320.619 119.898L319.339 120.639C315.42 122.93 312.481 125.83 310.521 129.34C308.568 132.822 307.726 136.647 307.994 140.815C308.269 144.955 309.623 149.137 312.056 153.359L313.657 156.138C316.397 160.895 319.842 163.974 323.991 165.374C328.157 166.764 332.285 166.276 336.373 163.91C338.898 162.45 340.827 160.573 342.161 158.281C343.513 155.978 344.141 153.489 344.045 150.812C343.967 148.126 343.199 145.518 341.742 142.988C339.463 139.033 336.631 136.419 333.244 135.149C329.857 133.878 326.475 134.219 323.097 136.174C319.95 137.994 317.952 140.552 317.101 143.848C315.721 140.465 315.581 137.28 316.68 134.292C317.797 131.294 320.082 128.76 323.536 126.691L324.283 126.259Z"/>
</g>
</svg>
