<svg width="415" height="581" viewBox="0 0 415 581" fill="none" xmlns="http://www.w3.org/2000/svg">
<defs>
      <linearGradient id="Gradient1" x1="0%" y1="0%" x2="0%" y2="100%">
        <stop class="stop1" offset="0%"/>
        <stop class="stop2" offset="25%"/>
	<stop class="stop4" offset="75%"/>
	<stop class="stop5" offset="100%"/>
      </linearGradient>
      <style type="text/css"><![CDATA[
        #group1 { fill: url(#Gradient1); }
        .stop1 { stop-color: #5ab9ea; }
        .stop2 { stop-color: #84ceeb; }
	.stop4 { stop-color: #8860d0; }
	.stop5 { stop-color: #5680e9; }
      ]]></style>
</defs>
<g id="group1">
<path d="M227.575 158.851C227.575 155.786 230.06 153.301 233.126 153.301H258.926C261.991 153.301 264.476 155.786 264.476 158.851C264.476 161.917 261.991 164.402 258.926 164.402H233.126C230.06 164.402 227.575 161.917 227.575 158.851Z" fill="#84ceeb"/>
<path fill-rule="evenodd" clip-rule="evenodd" d="M374.172 384.974C399.824 344.83 415 295.1 415 241.248C415 108.01 322.099 0 207.5 0C92.9009 0 0 108.01 0 241.248C0 295.099 15.1762 344.83 40.8273 384.973C45.6003 393.793 50.6347 402.615 55.929 411.415C99.8242 484.381 153.931 543.201 207.5 581C261.069 543.201 315.176 484.381 359.071 411.415C364.365 402.615 369.399 393.794 374.172 384.974ZM133.426 143.692C133.426 137.977 137.848 133.344 143.303 133.344H271.697C277.152 133.344 281.574 137.977 281.574 143.692V247.095H133.426V143.692ZM133.617 269.047C135.568 301.498 152.347 329.08 175.952 342.293C177.155 347.202 177.791 352.316 177.791 357.571C177.791 374.344 171.313 389.687 160.594 401.484C157.186 405.234 159.531 412.732 164.472 412.732H250.528C255.47 412.732 257.814 405.234 254.407 401.484C243.687 389.687 237.209 374.344 237.209 357.571C237.209 352.316 237.845 347.202 239.048 342.293C262.654 329.08 279.432 301.498 281.384 269.047H133.617Z"/>
</g>
</svg>
