<svg width="572" height="542" viewBox="0 0 572 542" fill="none" xmlns="http://www.w3.org/2000/svg">
<defs>
      <linearGradient id="Gradient1" x1="0%" y1="0%" x2="0%" y2="100%">
        <stop class="stop1" offset="0%"/>
        <stop class="stop2" offset="100%"/>
      </linearGradient>
      <linearGradient id="Gradient2" x1="0%" y1="0%" x2="0%" y2="100%">
        <stop class="stop2" offset="0%"/>
	    <stop class="stop3" offset="100%"/>
      </linearGradient>
      <style type="text/css">
      <![CDATA[
        #group1 { fill: url(#Gradient1); }
        #group2 { fill: url(#Gradient2); }
        .stop1 { stop-color: #5ab9ea; }
        .stop2 { stop-color: #84ceeb; }
	    .stop3 { stop-color: #8860d0; }
      ]]>
      </style>
</defs>
<g id="group1">
<path d="M224.318 404.881C178.428 379.277 145.811 325.832 142.017 262.951H429.276C425.482 325.832 392.865 379.277 346.976 404.88C344.638 414.392 343.402 424.303 343.402 434.485C343.402 466.986 355.995 496.715 376.833 519.575C383.457 526.841 378.9 541.37 369.293 541.37H202.001C192.393 541.37 187.837 526.841 194.461 519.575C215.299 496.715 227.892 466.986 227.892 434.485C227.892 424.303 226.656 414.393 224.318 404.881Z"/>
<path fill-rule="evenodd" clip-rule="evenodd" d="M160.846 0C150.243 0 141.646 8.97703 141.646 20.0508V220.415H429.647V20.0508C429.647 8.97703 421.05 0 410.446 0H160.846ZM333.673 38.6693C328.702 38.6693 324.673 42.6987 324.673 47.6693V51.1807C324.673 56.1512 328.702 60.1807 333.673 60.1807H387.409C392.38 60.1807 396.409 56.1512 396.409 51.1807V47.6693C396.409 42.6987 392.38 38.6693 387.409 38.6693H333.673Z"/>
<path d="M510.354 4.55033C511.03 2.88911 513.383 2.88912 514.059 4.55033L528.974 41.1881C529.193 41.7273 529.637 42.1441 530.189 42.3297L569.931 55.6969C571.747 56.3079 571.747 58.8772 569.931 59.4882L530.189 72.8555C529.637 73.0411 529.193 73.4579 528.974 73.9971L514.059 110.635C513.383 112.296 511.03 112.296 510.354 110.635L495.439 73.9971C495.22 73.4579 494.776 73.0411 494.224 72.8555L454.482 59.4882C452.666 58.8772 452.666 56.3079 454.482 55.6969L494.224 42.3297C494.776 42.1441 495.22 41.7273 495.439 41.1881L510.354 4.55033Z"/>
</g>
<g id="group2">
<path d="M57.2341 217.643C57.9104 215.982 60.2626 215.982 60.9389 217.643L75.8537 254.281C76.0732 254.82 76.5167 255.237 77.0685 255.422L116.811 268.79C118.627 269.401 118.627 271.97 116.811 272.581L77.0685 285.948C76.5167 286.134 76.0732 286.55 75.8537 287.09L60.9389 323.727C60.2626 325.389 57.9104 325.389 57.2341 323.727L42.3193 287.09C42.0998 286.55 41.6562 286.134 41.1045 285.948L1.3624 272.581C-0.454132 271.97 -0.454134 269.401 1.3624 268.79L41.1045 255.422C41.6562 255.237 42.0998 254.82 42.3193 254.281L57.2341 217.643Z" />
<path d="M224.318 404.881C178.428 379.277 145.811 325.832 142.017 262.951H429.276C425.482 325.832 392.865 379.277 346.976 404.88C344.638 414.392 343.402 424.303 343.402 434.485C343.402 466.986 355.995 496.715 376.833 519.575C383.457 526.841 378.9 541.37 369.293 541.37H202.001C192.393 541.37 187.837 526.841 194.461 519.575C215.299 496.715 227.892 466.986 227.892 434.485C227.892 424.303 226.656 414.393 224.318 404.881Z"/>
</g>
</svg>
